<svg width="80" height="16" xmlns="http://www.w3.org/2000/svg"><g id="Icons:-Payment" stroke="none" stroke-width="1" fill="none" fill-rule="evenodd"><g id="Paymill-flat" transform="translate(-10 -22)" fill="#9B9B9B"><g id="Payment/Paymill/Paymill-flat" transform="translate(10 22)"><path d="M21.918 9.422h-1.231v4.475H18.67V2.024h3.48c2.498 0 4.39 1.176 4.39 3.6-.001 2.479-1.75 3.798-4.622 3.798zm.071-5.812h-1.302v4.225h1.249c1.802 0 2.57-.73 2.57-2.157-.001-1.283-.715-2.068-2.517-2.068zm6.071 10.287h-2.016l4.532-11.873h1.944l4.622 11.873h-2.195l-.928-2.55h-5.031l-.929 2.55zm4.12-7.577a53.555 53.555 0 01-.677-2.05h-.036s-.303 1.07-.678 2.05c0 0-1.213 3.387-1.23 3.387h3.853L32.181 6.32zm8.818 3.084v4.493h-2.016V9.404l-3.961-7.38h2.248l2.801 5.508h.018l2.801-5.508h1.963l-3.854 7.38zm9.748 4.513l-2.41-6.88a82.839 82.839 0 01-.534-1.676h-.036s-.072.927-.16 1.729l-.84 6.827H44.93l1.624-11.872h1.945l2.64 7.666c.339.944.66 2.103.66 2.103h.036s.339-1.16.678-2.103l2.676-7.666h1.945l1.624 11.872h-2.052l-.874-6.863c-.108-.82-.197-1.693-.197-1.693H55.6s-.25.873-.518 1.675l-2.373 6.881h-1.962zm9.853 0V2.045h2.016v11.873h-2.016zm4.185 0V2.045H66.8v10.233h4.532v1.64h-6.548zm8.664 0V2.045h2.016v10.233h4.532v1.64h-6.548zM8.532 4.719a.465.465 0 00-.465-.465h-2.37a.906.906 0 00-.805.465L.11 14.753a.465.465 0 00.425.65l2.37.001c.407 0 .747-.347.88-.626l4.708-9.873a.463.463 0 00.04-.186z" id="Shape"/><path d="M14.206 6.112a.458.458 0 00-.037-.183l-2.21-4.765v-.001c-.155-.348-.472-.626-.879-.626H8.71a.465.465 0 00-.425.651l2.228 4.701s.057.144.057.224a.46.46 0 01-.057.219v.004l-2.228 4.7a.464.464 0 00.425.65l2.37.002c.407 0 .706-.278.879-.626l2.21-4.766a.458.458 0 00.037-.184z" id="Shape"/></g></g></g></svg>