<svg width="79" height="24" xmlns="http://www.w3.org/2000/svg"><g id="Icons:-Payment" stroke="none" stroke-width="1" fill="none" fill-rule="evenodd"><g id="Bitcoin-flat" transform="translate(-11 -19)" fill="#9B9B9B"><g id="Payment/Bitcoin/Bitcoin-flat" transform="translate(11 18)"><g id="Bitcoin" transform="translate(16.725 .754)"><path d="M7.343 5.204c.665 0 1.24.118 1.723.352.485.235.886.552 1.207.95.317.4.553.869.705 1.405.151.538.227 1.117.227 1.736 0 .95-.175 1.85-.529 2.696a6.988 6.988 0 01-1.443 2.212 6.781 6.781 0 01-2.16 1.485c-.83.366-1.73.548-2.698.548-.125 0-.345-.003-.656-.01a9.513 9.513 0 01-1.068-.092 12.534 12.534 0 01-1.278-.249 6.432 6.432 0 01-1.278-.454L3.688.763 6.906.267l-1.287 5.33a5.03 5.03 0 01.83-.29c.279-.067.576-.103.894-.103zm-2.7 8.845c.485 0 .942-.118 1.37-.352a3.567 3.567 0 001.113-.94c.31-.393.558-.837.737-1.333.18-.495.27-1.012.27-1.55 0-.66-.11-1.177-.332-1.549-.222-.371-.63-.558-1.226-.558-.194 0-.446.037-.757.103a1.9 1.9 0 00-.843.435l-1.37 5.66c.083.015.157.029.219.042a2.213 2.213 0 00.446.043l.374-.001z" id="path8316"/><path d="M14.544 16.3H11.47l2.596-10.867h3.095L14.544 16.3zm1.495-12.19c-.43 0-.818-.127-1.163-.381-.348-.253-.52-.643-.52-1.168 0-.29.058-.56.175-.816A2.172 2.172 0 0115.674.64c.257-.11.53-.165.821-.165.43 0 .816.128 1.162.382.346.256.52.646.52 1.167 0 .29-.06.563-.178.818a2.162 2.162 0 01-1.14 1.105 2.034 2.034 0 01-.82.164z" id="path8318"/><path d="M19.853 2.727l3.22-.496-.79 3.202h3.447l-.623 2.52H21.68l-.913 3.802a4.28 4.28 0 00-.145.887c-.015.276.02.514.103.713.083.2.231.354.447.464.214.11.521.166.923.166.332 0 .655-.03.967-.094.31-.06.625-.146.944-.258l.229 2.357a11.24 11.24 0 01-1.35.392c-.485.11-1.06.164-1.724.164-.955 0-1.695-.14-2.223-.422-.526-.283-.899-.669-1.122-1.158-.22-.487-.318-1.05-.29-1.683.029-.635.125-1.302.29-2.004l2.037-8.552z" id="path8320"/><path d="M25.594 11.962c0-.936.153-1.818.457-2.645a6.495 6.495 0 011.31-2.171 6.123 6.123 0 012.067-1.466c.807-.358 1.711-.538 2.708-.538a7.18 7.18 0 011.672.176 6.77 6.77 0 011.34.465l-1.06 2.398c-.277-.112-.564-.21-.861-.3-.298-.09-.66-.135-1.09-.135-1.026 0-1.837.352-2.44 1.053-.602.702-.905 1.646-.905 2.832 0 .702.153 1.27.458 1.704.304.434.866.65 1.682.65a5.714 5.714 0 002.16-.433l.23 2.458c-.39.15-.818.286-1.288.405-.471.115-1.032.173-1.683.173-.859 0-1.586-.124-2.18-.37-.595-.25-1.087-.583-1.474-1.003a3.773 3.773 0 01-.842-1.479 6 6 0 01-.26-1.774z" id="path8322"/><path d="M39.248 16.59c-.734 0-1.371-.111-1.912-.331a3.533 3.533 0 01-1.338-.93 4.013 4.013 0 01-.8-1.415 5.677 5.677 0 01-.268-1.805c0-.828.134-1.656.404-2.481a7.008 7.008 0 011.195-2.23 6.37 6.37 0 011.93-1.625c.76-.418 1.634-.63 2.616-.63.72 0 1.354.112 1.902.332.545.22.994.531 1.35.93.35.4.618.87.798 1.415.18.543.27 1.147.27 1.807 0 .826-.132 1.653-.394 2.481a7.152 7.152 0 01-1.163 2.23 6.092 6.092 0 01-1.92 1.622c-.77.42-1.66.63-2.67.63zm1.536-8.843a1.95 1.95 0 00-1.204.392 3.379 3.379 0 00-.871.992c-.237.4-.413.838-.532 1.312a5.643 5.643 0 00-.175 1.353c0 .69.112 1.226.331 1.613.223.384.623.577 1.205.577.458 0 .858-.13 1.206-.393.344-.26.634-.591.87-.991.236-.398.414-.837.532-1.312.117-.474.176-.926.176-1.353 0-.688-.112-1.225-.333-1.611-.222-.386-.624-.579-1.205-.579z" id="path8324"/><path d="M48.743 16.3h-3.076l2.596-10.867h3.096L48.743 16.3zm1.493-12.19c-.428 0-.817-.127-1.162-.381-.346-.253-.52-.643-.52-1.168 0-.29.06-.56.177-.816.117-.255.273-.475.467-.661.194-.186.42-.333.675-.445.256-.11.53-.165.82-.165.43 0 .818.128 1.163.382.347.256.52.646.52 1.167 0 .29-.061.563-.178.818a2.15 2.15 0 01-1.139 1.105c-.257.111-.53.164-.823.164z" id="path8326"/><path d="M53.573 5.929c.233-.068.494-.15.777-.239a11.805 11.805 0 012.14-.433c.436-.049.932-.073 1.484-.073 1.62 0 2.739.47 3.356 1.406.616.937.723 2.219.322 3.843L60.24 16.3h-3.094l1.37-5.744c.083-.359.15-.705.198-1.044a2.46 2.46 0 00-.01-.888 1.06 1.06 0 00-.384-.62c-.203-.159-.51-.237-.925-.237-.4 0-.808.043-1.225.125L54.154 16.3H51.06l2.514-10.371z" id="path8328"/></g><g id="Accepted-Here" transform="translate(31.52 20.141)"><path d="M1.641 3.389l-.603 1.09H.386A49.59 49.59 0 013.026.236h.584c.062.306.118.616.17.927a49.368 49.368 0 01.292 2.073c.045.384.092.798.141 1.243H3.61a24.12 24.12 0 01-.055-.554 17.416 17.416 0 00-.056-.536H1.641zm1.803-.478A30.968 30.968 0 003.18.915 29.45 29.45 0 001.917 2.91h1.527z" id="path8332"/><path d="M6.394 4.57c-.266 0-.501-.039-.704-.116a1.351 1.351 0 01-.508-.331 1.372 1.372 0 01-.305-.517 2.142 2.142 0 01-.101-.683c0-.367.058-.718.175-1.053.117-.334.283-.63.499-.887.215-.257.475-.463.778-.616.304-.153.642-.23 1.016-.23.32 0 .575.033.766.098.19.066.327.127.409.184l-.246.49a1.771 1.771 0 00-.96-.257c-.283 0-.538.066-.763.199a1.912 1.912 0 00-.573.514c-.155.21-.274.447-.356.71a2.613 2.613 0 00-.124.781c0 .796.347 1.194 1.04 1.194.148 0 .28-.01.397-.031.117-.02.22-.044.311-.07.09-.027.17-.056.24-.09l.185-.085.074.514c-.05.029-.114.06-.194.092a2.46 2.46 0 01-.28.092 2.982 2.982 0 01-.776.098z" id="path8334"/><path d="M9.852 4.57a1.98 1.98 0 01-.705-.116 1.351 1.351 0 01-.508-.331 1.372 1.372 0 01-.304-.517 2.142 2.142 0 01-.102-.683c0-.367.059-.718.176-1.053.117-.334.283-.63.498-.887a2.44 2.44 0 01.779-.616c.303-.153.641-.23 1.015-.23.32 0 .575.033.766.098.19.066.327.127.41.184l-.247.49a1.771 1.771 0 00-.96-.257c-.283 0-.537.066-.763.199a1.912 1.912 0 00-.572.514c-.156.21-.275.447-.357.71a2.613 2.613 0 00-.123.781c0 .796.347 1.194 1.04 1.194.148 0 .28-.01.397-.031.117-.02.22-.044.31-.07.09-.027.17-.056.24-.09l.185-.085.074.514c-.05.029-.114.06-.194.092a2.46 2.46 0 01-.28.092 2.982 2.982 0 01-.775.098z" id="path8336"/><path d="M11.504 4.478L12.526.235h2.517l-.117.496h-1.927l-.307 1.28h1.71l-.116.483H12.58l-.363 1.488h2.068l-.117.496h-2.665z" id="path8338"/><path d="M16.824.192c.497 0 .87.094 1.123.282.252.188.379.461.379.82 0 .278-.053.518-.157.72a1.344 1.344 0 01-.446.5c-.193.13-.425.226-.696.29a3.98 3.98 0 01-.904.095h-.425l-.382 1.58h-.597L15.73.29a3.23 3.23 0 01.547-.08 8.31 8.31 0 01.548-.019zm-.074.502c-.291 0-.467.009-.529.025l-.406 1.684h.388c.172 0 .348-.015.529-.046.18-.031.342-.085.486-.162a.984.984 0 00.354-.322.927.927 0 00.138-.53c0-.232-.086-.398-.258-.499-.173-.1-.406-.15-.702-.15z" id="path8340"/><path d="M21.966.235l-.117.496h-1.286l-.905 3.747h-.596l.904-3.747H18.68l.117-.496h3.17z" id="path8342"/><path d="M21.412 4.478L22.434.235h2.517l-.117.496h-1.926l-.308 1.28h1.71l-.116.483h-1.705l-.363 1.488h2.068l-.117.496h-2.665z" id="path8344"/><path d="M26.723.192c.632 0 1.104.148 1.415.444.312.296.468.695.468 1.197 0 .351-.055.689-.166 1.013-.11.325-.283.611-.517.86a2.492 2.492 0 01-.895.595c-.363.146-.797.22-1.302.22-.172 0-.359-.008-.56-.025a2.984 2.984 0 01-.53-.085l.992-4.12c.172-.042.355-.068.547-.08.193-.013.376-.019.548-.019zm-.05.502c-.307 0-.491.009-.553.025l-.788 3.27c.033.007.089.015.166.02.078.007.206.01.382.01.324 0 .616-.054.877-.162.26-.108.48-.259.661-.453a2.03 2.03 0 00.419-.692c.098-.267.148-.56.148-.878 0-.36-.105-.64-.314-.84-.21-.2-.542-.3-.997-.3z" id="path8346"/><path d="M33.203 4.478h-.597l.474-1.971h-1.975l-.474 1.971h-.597L31.055.235h.597l-.43 1.776h1.975l.431-1.776h.597l-1.022 4.243z" id="path8348"/><path d="M34.145 4.478L35.166.235h2.517l-.117.496h-1.927l-.307 1.28h1.71l-.117.483h-1.704l-.363 1.488h2.067l-.117.496h-2.663z" id="path8350"/><path d="M39.465.192c.455 0 .816.092 1.083.276.266.184.4.453.4.808 0 .359-.106.66-.317.903-.212.243-.508.417-.89.523.05.086.107.195.173.328a11.541 11.541 0 01.406.942c.066.174.123.342.172.506h-.609a29.496 29.496 0 00-.178-.472c-.061-.16-.124-.312-.188-.46a8.955 8.955 0 00-.366-.752 4.202 4.202 0 01-.32.012h-.474l-.4 1.672h-.597L38.37.29c.172-.041.354-.068.547-.08.193-.012.375-.018.548-.018zm-.074.502c-.292 0-.468.009-.53.025l-.388 1.604h.364c.168 0 .34-.012.517-.036.176-.025.337-.073.482-.144a.943.943 0 00.357-.3c.093-.129.14-.3.14-.511 0-.229-.088-.392-.262-.49-.175-.099-.402-.148-.68-.148z" id="path8352"/><path d="M40.993 4.478L42.014.235h2.517l-.117.496h-1.926l-.308 1.28h1.71l-.117.483H42.07l-.363 1.488h2.067l-.117.496h-2.663z" id="path8354"/></g><path d="M8.228 17.342c4.53 0 8.202-3.654 8.202-8.16 0-4.507-3.672-8.16-8.202-8.16-4.53 0-8.202 3.653-8.202 8.16 0 4.506 3.672 8.16 8.202 8.16zm3.616-9.324c.163-1.086-.668-1.67-1.805-2.06l.37-1.471-.9-.224-.36 1.433c-.236-.058-.48-.114-.721-.168l.361-1.443-.9-.223-.368 1.471a28.39 28.39 0 01-.575-.135v-.004l-1.24-.308-.24.956s.667.152.653.162c.365.09.431.33.42.521l-.42 1.676a.606.606 0 01.094.03l-.096-.024-.588 2.35c-.045.109-.158.274-.413.211.01.013-.654-.162-.654-.162l-.448 1.026 1.172.29c.218.054.431.111.641.165l-.372 1.488.899.223.37-1.472c.245.066.483.128.717.185l-.368 1.466.9.223.373-1.485c1.535.289 2.69.172 3.175-1.21.392-1.112-.02-1.753-.827-2.172.589-.135 1.032-.52 1.15-1.315zm-2.057 2.87c-.278 1.113-2.16.511-2.77.36l.494-1.971c.61.151 2.567.451 2.276 1.611zm.279-2.885c-.254 1.01-1.82.497-2.33.371l.45-1.788c.507.126 2.144.361 1.88 1.417z" id="circle8306"/></g></g></g></svg>