<svg width="68" height="43" xmlns="http://www.w3.org/2000/svg"><g id="Icons:-Credit-card" stroke="none" stroke-width="1" fill="none" fill-rule="evenodd"><g id="Maestro-flat" transform="translate(-16 -9)"><g id="Credit-card/Maestro/Maestro-flat" transform="translate(16 8)"><path d="M40.675 18.488c-.044-.25-.092-.497-.145-.743H28.326c.154-.722.349-1.429.578-2.12h11.047a20.17 20.17 0 00-.843-2.119h-9.36a20.31 20.31 0 011.149-2.12h7.062c-.461-.74-.97-1.446-1.519-2.117h-4.025a20.165 20.165 0 012.013-2.119l-.05-.044a19.821 19.821 0 0113.34-5.14c11.013 0 19.938 8.962 19.938 20.018C67.656 33.039 58.731 42 47.717 42a19.821 19.821 0 01-13.338-5.138 20.081 20.081 0 002.063-2.167h-4.029a19.871 19.871 0 01-1.519-2.12h7.067c.424-.68.807-1.387 1.149-2.12h-9.364a19.911 19.911 0 01-.844-2.119h11.05c.176-.526.33-1.063.462-1.608-.606.253-1.403.375-2.4.375-.895-.021-1.906-.076-2.628-.245l.36-1.912a8.26 8.26 0 002.251.323c1.002.006 1.454-.232 1.454-.753 0-.375-.16-.496-1.183-.917-1.337-.54-1.925-1.264-1.925-2.313-.009-1.535.97-2.812 3.798-2.812.153 0 .336.005.534.014zm.246 1.974a20.397 20.397 0 01.051 1.986 4.256 4.256 0 00-.838-.429c-1.06-.424-1.184-.517-1.184-.9 0-.452.42-.682 1.238-.682.216 0 .466.009.733.025zm5.363 6.372c-.68.188-1.21.27-1.784.27-1.27 0-1.963-.653-1.963-1.813-.04-.319.27-1.792.34-2.202.07-.412 1.17-6.411 1.17-6.411h2.468l-.373 1.985h1.266l-.344 2.026h-1.271s-.698 3.516-.698 3.784c0 .428.257.612.848.612.282 0 .5-.026.67-.077l-.33 1.826zm14.936-4.672c0-2.072-1.356-3.69-3.91-3.69-2.938 0-4.839 1.966-4.839 4.862 0 2.073 1.121 3.77 3.906 3.77 2.809 0 4.843-1.507 4.843-4.942zm-2.664-.053c0 1.872-.764 2.98-1.972 2.98-.88.012-1.414-.728-1.414-1.838 0-1.315.779-2.8 2.03-2.8 1.01 0 1.356.803 1.356 1.658zm-10.074-3.447c-.314 2.568-.869 5.172-1.303 7.745l-.104.56h2.492c.898-4.97 1.2-6.385 3.082-5.887l.905-2.351c-1.313-.484-2.158.207-2.923 1.189.07-.442.2-.869.168-1.256h-2.317z" id="Fill-356-Copy" fill="#9B9B9B"/><path d="M1.258 7.605l-.703-.727A20.823 20.823 0 0115.08 1c11.566 0 20.94 9.41 20.94 21.016 0 11.607-9.374 21.017-20.94 21.017-3.67 0-7.207-.95-10.33-2.732a20.966 20.966 0 01-3.721-2.703c-.327-.29-.637-.576-.929-.857l.736-.766A19.94 19.94 0 0015.143 42c11.046 0 20-8.954 20-20s-8.954-20-20-20A19.933 19.933 0 001.258 7.605z" id="Path-Copy" fill="#9B9B9B" transform="rotate(-180 18.06 22.017)"/><path d="M34.668 26.768a9.636 9.636 0 01-2.546.335c-2.78-.002-4.227-1.273-4.227-3.703 0-2.84 1.842-4.927 4.343-4.927 2.046 0 3.353 1.17 3.353 3.005 0 .608-.089 1.2-.305 2.04h-4.942c-.176 1.186.686 1.707 2.156 1.707.88 0 1.676-.158 2.558-.515l-.39 2.058zm-1.329-4.924c0-.18.275-1.454-1.155-1.481-.79 0-1.356.527-1.585 1.48h2.74z" id="Fill-366" fill="#979797"/><path d="M26.54 26.966h-2.074l.05-.872c-.632.687-1.474 1.007-2.617 1.007-1.352 0-2.28-.928-2.28-2.263 0-2.029 1.612-3.2 4.381-3.2.285 0 .646.022 1.019.063.077-.271.097-.388.097-.535 0-.557-.435-.76-1.6-.76a9.532 9.532 0 00-2.644.37l.353-1.863c1.245-.317 2.059-.44 2.981-.44 2.145 0 3.277.843 3.277 2.43.018.424-.129 1.272-.202 1.645-.085.541-.679 3.678-.74 4.418zm-1.82-3.703a4.637 4.637 0 00-.557-.034c-1.413 0-2.13.422-2.13 1.256 0 .524.35.852.894.852 1.017 0 1.75-.854 1.793-2.074z" id="Fill-368" fill="#979797"/><path d="M18.459 26.967h-2.482l1.475-7.802-3.397 7.802h-2.262l-.414-7.756-1.48 7.756H7.647l1.918-10.149h3.88l.204 6.283 2.73-6.283h4.036l-1.956 10.15" id="Fill-372" fill="#979797"/></g></g></g></svg>