<svg width="100" height="60" xmlns="http://www.w3.org/2000/svg"><g id="Icons:-Payment" stroke="none" stroke-width="1" fill="none" fill-rule="evenodd"><g id="Coinkite-card-dark"><g id="Payment/Coinkite/Coinkite-card-dark"><rect id="Rectangle" fill="#F27100" x="0" y="0" width="100" height="60" rx="4"/><g id="Group" transform="translate(30.799 42.95)" fill="#FFF"><path d="M0 3.696C0 1.539 1.604.084 3.684.084c1.511 0 2.39.827 2.877 1.706L5.3 2.42c-.29-.566-.911-1.016-1.614-1.016-1.263 0-2.174.974-2.174 2.293 0 1.32.91 2.293 2.174 2.293.703 0 1.324-.45 1.614-1.016l1.262.618c-.486.87-1.366 1.717-2.877 1.717C1.604 7.308 0 5.842 0 3.696zm7.089.952C7.089 3.214 8.082 2 9.728 2c1.656 0 2.65 1.214 2.65 2.648 0 1.435-.994 2.66-2.65 2.66-1.646 0-2.64-1.225-2.64-2.66zm3.922 0c0-.785-.455-1.465-1.283-1.465-.818 0-1.273.68-1.273 1.465 0 .796.455 1.477 1.273 1.477.827 0 1.283-.68 1.283-1.477zM13.235.785a.782.782 0 111.563 0 .79.79 0 01-.787.796.789.789 0 01-.776-.796zm.124 6.397V2.125h1.314v5.057H13.36zm5.992 0V4.125c0-.701-.362-.942-.921-.942-.517 0-.91.293-1.138.586v3.413h-1.315V2.125h1.315v.65a2.327 2.327 0 011.749-.776c1.107 0 1.635.628 1.635 1.613v3.57H19.35zm5.857 0l-1.325-1.947-.6.649v1.298h-1.314V.2h1.314v4.177l1.894-2.251h1.614l-1.977 2.293 2.04 2.764h-1.646zM27.39.785a.782.782 0 111.563 0 .79.79 0 01-.786.796.789.789 0 01-.776-.796zm.125 6.397V2.125h1.315v5.057h-1.315zm2.887-1.267V3.288h-.828V2.125h.828V.743h1.315v1.382h1.013v1.163h-1.013v2.271c0 .325.165.566.455.566.196 0 .383-.074.455-.157l.28 1.015c-.197.178-.549.325-1.097.325-.922 0-1.408-.482-1.408-1.393zm2.908-1.267C33.31 3.183 34.386 2 35.897 2c1.5 0 2.505 1.13 2.505 2.774v.314h-3.716c.094.618.59 1.131 1.439 1.131.424 0 1.004-.178 1.324-.492l.59.88c-.496.46-1.283.7-2.059.7-1.522 0-2.67-1.036-2.67-2.659zm2.587-1.56c-.818 0-1.17.576-1.22 1.079h2.462c-.041-.482-.372-1.078-1.242-1.078z" id="Shape"/></g><g id="Group" transform="translate(31.09 9.692)" fill="#FFF"><path d="M35.956 30.11H2.246c-1.178 0-2.137-.968-2.137-2.16V2.16C.109.97 1.068 0 2.246 0h33.71c1.18 0 2.138.97 2.138 2.16v25.79a2.15 2.15 0 01-2.138 2.16zM2.359 27.837h33.485V2.274H2.36v25.563z" id="Shape"/><path d="M23.147 19.457v3.493c0 .648-.621 1.173-1.384 1.173h-.24v2.096h12.502v-6.763H23.147z" id="Shape"/><path id="Rectangle-path" d="M23.147 11.898h10.879v6.259H23.147z"/><path d="M21.524 3.9v2.086h.24c.762 0 1.385.527 1.385 1.173v3.503h10.878V3.9H21.524zM16.44 24.124c-.764 0-1.385-.525-1.385-1.173v-3.493H4.115v6.764H16.62v-2.097l-.18-.001z" id="Shape"/><path id="Rectangle-path" d="M4.116 11.898h10.94v6.259H4.116z"/><path d="M15.055 7.16c0-.646.62-1.172 1.385-1.172h.18V3.9H4.116v6.763h10.94V7.16zm6.842 14.977c0 .374-.3.677-.67.677h-4.25a.674.674 0 01-.671-.677V8.05c0-.374.3-.678.67-.678h4.25c.371 0 .671.304.671.678v14.087z" id="Shape"/></g></g></g></g></svg>