<svg width="80" height="16" xmlns="http://www.w3.org/2000/svg"><g id="Icons:-Payment" stroke="none" stroke-width="1" fill="none" fill-rule="evenodd"><g id="Dwolla" transform="translate(-10 -22)" fill="#E46B2A"><g id="Payment/Dwolla/Dwolla" transform="translate(10 22)"><path d="M4.412 13.97c1.054 0 1.96-.11 2.72-.33.76-.218 1.387-.567 1.88-1.046.493-.478.855-1.096 1.088-1.853.233-.758.35-1.668.35-2.731s-.117-1.973-.35-2.73c-.233-.758-.595-1.376-1.088-1.854-.493-.479-1.12-.827-1.88-1.047-.76-.219-1.666-.329-2.72-.329H1.434v11.92h2.978zM5.11.894c2.231.053 3.912.66 5.042 1.823 1.129 1.163 1.693 2.927 1.693 5.292 0 2.365-.564 4.13-1.693 5.292-1.13 1.163-2.81 1.77-5.042 1.824H.038V.895H5.11z" id="Fill-3"/><path d="M13.714.895l3.327 12.457h.041L20.655.895h1.746l3.594 12.457h.04L29.384.895h1.396l-4.045 14.23h-1.479L21.538 2.39h-.04L17.8 15.126h-1.52L12.215.895h1.499" id="Fill-4"/><path d="M32.844 10.292a6.04 6.04 0 00.985 2.013 4.916 4.916 0 001.715 1.426c.698.358 1.533.538 2.505.538.973 0 1.804-.18 2.496-.538a4.947 4.947 0 001.703-1.426 6.042 6.042 0 00.987-2.013 8.353 8.353 0 000-4.574 6.062 6.062 0 00-.987-2.003 4.956 4.956 0 00-1.703-1.425c-.692-.36-1.523-.539-2.496-.539-.972 0-1.807.18-2.505.539a4.924 4.924 0 00-1.715 1.425 6.06 6.06 0 00-.985 2.003 8.296 8.296 0 00-.319 2.292c0 .77.106 1.532.319 2.282zM31.56 5.2a6.95 6.95 0 011.294-2.362 6.219 6.219 0 012.166-1.635c.87-.405 1.88-.608 3.03-.608s2.155.203 3.018.608a6.23 6.23 0 012.156 1.635A6.956 6.956 0 0144.518 5.2c.287.89.431 1.827.431 2.81 0 .984-.144 1.92-.43 2.81a6.846 6.846 0 01-1.295 2.352 6.284 6.284 0 01-2.156 1.625c-.863.405-1.869.608-3.019.608-1.15 0-2.16-.203-3.029-.608a6.259 6.259 0 01-2.166-1.625 6.84 6.84 0 01-1.294-2.351 9.085 9.085 0 01-.43-2.811c0-.983.142-1.92.43-2.81z" id="Fill-5"/><path d="M48.112.895v13.074h8.214v1.157h-9.61V.895h1.396" id="Fill-6"/><path d="M59.139.895v13.074h8.214v1.157h-9.61V.895h1.396" id="Fill-7"/><path d="M76.204 9.545L73.37 2.25l-2.936 7.295h5.77zM74.213.895l5.75 14.23h-1.5l-1.787-4.424h-6.674l-1.766 4.425h-1.478L72.652.895h1.56z" id="Fill-8"/></g></g></g></svg>