<svg width="100" height="60" xmlns="http://www.w3.org/2000/svg"><g id="Icons:-Payment" stroke="none" stroke-width="1" fill="none" fill-rule="evenodd"><g id="Payone-card-flat" fill="#9B9B9B"><g id="Payment/Payone/Payone-card-flat"><path d="M0 4.007C0 1.794 1.8 0 3.997 0h92.006A4.003 4.003 0 01100 4.007v51.986C100 58.206 98.2 60 96.003 60H3.997A4.003 4.003 0 010 55.993V4.007zM14.895 33.58c0 .351.303.638.673.638h2.767c.37 0 .672-.287.672-.638v-2.622c0-.35-.302-.638-.672-.638h-2.767c-.37 0-.673.287-.673.638v2.622zm-4.785.011c0 .351.302.638.673.638h2.766c.37 0 .672-.287.672-.638V30.97c0-.35-.302-.638-.672-.638h-2.766c-.37 0-.673.287-.673.638v2.622zm4.785-4.547c0 .351.303.638.673.638h2.767c.37 0 .672-.287.672-.638v-2.622c0-.35-.302-.637-.672-.637h-2.767c-.37 0-.673.286-.673.637v2.622zm-4.785 0c0 .351.302.638.673.638h2.766c.37 0 .672-.287.672-.638v-2.622c0-.35-.302-.637-.672-.637h-2.766c-.37 0-.673.286-.673.637v2.622zm6.15.593v.002-.002zm9.295-2.466h2.369c1.716 0 1.857.474 1.857 1.001 0 .577-.21 1.167-1.765 1.167h-2.461v-2.168zm2.392-1.388h-4.112v8.434h1.72v-3.49h2.764c2.067 0 3.252-.931 3.252-2.555 0-1.674-1.084-2.389-3.624-2.389zM39.67 30.76h-3.367l1.688-3.218 1.68 3.218zm-2.543-4.976l-4.571 8.434h1.925l1.08-2.07h4.828l1.08 2.07h1.96l-4.572-8.434h-1.73zm15.044 0l-2.906 3.536-2.907-3.536h-2.22l4.266 4.964v3.47h1.72v-3.47l4.268-4.964h-2.22zm8.775 7.255c-1.903 0-3.182-1.22-3.182-3.038 0-1.817 1.279-3.038 3.182-3.038 1.904 0 3.182 1.22 3.182 3.038 0 1.817-1.278 3.038-3.182 3.038zm0-7.464c-3.669 0-4.971 2.384-4.971 4.426 0 2.042 1.302 4.426 4.971 4.426 3.67 0 4.973-2.384 4.973-4.426 0-2.042-1.303-4.426-4.973-4.426zm15.884 6.51l-4.77-6.3h-2.037v8.433h1.72v-6.3l4.77 6.3h2.037v-8.434h-1.72v6.3zm13.06-4.913v-1.388h-6.863v8.434h6.852V32.83h-5.131v-2.245h4.739v-1.388h-4.74v-2.025h5.142z" id="Rectangle"/></g></g></g></svg>