<svg width="100" height="60" xmlns="http://www.w3.org/2000/svg"><g id="Icons:-Credit-card" stroke="none" stroke-width="1" fill="none" fill-rule="evenodd"><g id="Maestro-card-flat" fill="#9B9B9B"><g id="Credit-Card/Maestro/Maestro-card-flat"><path d="M50.383 15.191a20.167 20.167 0 00-1.968 2.078h4.025a20.13 20.13 0 011.519 2.117h-7.062a20.285 20.285 0 00-1.15 2.12h9.361c.319.686.601 1.393.843 2.12H44.904c-.23.69-.424 1.397-.578 2.119H56.53c.053.246.101.494.145.743-.198-.01-.381-.014-.534-.014-2.828 0-3.807 1.277-3.798 2.812 0 1.05.588 1.773 1.925 2.313 1.022.42 1.183.542 1.183.917 0 .52-.452.76-1.454.753a8.26 8.26 0 01-2.251-.323l-.36 1.912c.722.169 1.733.224 2.628.245.997 0 1.794-.122 2.4-.375a19.871 19.871 0 01-.461 1.608H44.902c.241.726.525 1.434.844 2.12h9.364c-.342.732-.725 1.44-1.15 2.119h-7.066c.461.741.968 1.45 1.519 2.12h4.03a20.1 20.1 0 01-2.064 2.167l.01.008a19.927 19.927 0 01-13.412 5.163c-11.046 0-20-8.954-20-20s8.954-20 20-20c5.157 0 9.859 1.952 13.406 5.158zm.741-.727a19.808 19.808 0 0112.593-4.497c11.014 0 19.94 8.961 19.94 20.017C83.656 41.039 74.73 50 63.716 50a19.808 19.808 0 01-12.554-4.466c-.02.02-.041.038-.062.057a20.823 20.823 0 01-14.061 5.442c-11.566 0-20.94-9.41-20.94-21.016C16.1 18.41 25.474 9 37.04 9c3.67 0 7.207.95 10.33 2.732a20.966 20.966 0 013.754 2.732zM0 4.007C0 1.794 1.8 0 3.997 0h92.006A4.003 4.003 0 01100 4.007v51.986C100 58.206 98.2 60 96.003 60H3.997A4.003 4.003 0 010 55.993V4.007zm50.668 30.76a9.636 9.636 0 01-2.546.336c-2.78-.002-4.227-1.273-4.227-3.703 0-2.84 1.842-4.927 4.343-4.927 2.046 0 3.353 1.17 3.353 3.005 0 .608-.089 1.2-.305 2.04h-4.942c-.176 1.186.686 1.707 2.156 1.707.88 0 1.676-.158 2.558-.515l-.39 2.058zm-1.329-4.923c0-.18.275-1.454-1.155-1.481-.79 0-1.356.527-1.585 1.48h2.74zm-6.799 5.122h-2.074l.05-.872c-.632.687-1.474 1.007-2.617 1.007-1.352 0-2.28-.928-2.28-2.263 0-2.029 1.612-3.2 4.381-3.2.285 0 .646.022 1.019.063.077-.271.097-.388.097-.535 0-.557-.435-.76-1.6-.76a9.532 9.532 0 00-2.644.37l.353-1.863c1.245-.317 2.059-.44 2.981-.44 2.145 0 3.277.843 3.277 2.43.018.424-.129 1.272-.202 1.645-.085.541-.679 3.678-.74 4.418zm-1.82-3.703a4.637 4.637 0 00-.557-.034c-1.413 0-2.13.422-2.13 1.256 0 .524.35.852.894.852 1.017 0 1.75-.854 1.793-2.074zm-6.261 3.704h-2.482l1.475-7.802-3.397 7.802h-2.262l-.414-7.756-1.48 7.756h-2.252l1.918-10.149h3.88l.204 6.283 2.73-6.283h4.036l-1.956 10.15zm22.462-6.505a20.397 20.397 0 01.051 1.986 4.256 4.256 0 00-.838-.429c-1.06-.424-1.184-.517-1.184-.9 0-.452.42-.682 1.238-.682.216 0 .466.009.733.025zm5.363 6.372c-.68.188-1.21.27-1.784.27-1.27 0-1.963-.653-1.963-1.813-.04-.319.27-1.792.34-2.202.07-.412 1.17-6.411 1.17-6.411h2.468l-.373 1.985h1.266l-.344 2.026h-1.271s-.698 3.516-.698 3.784c0 .428.257.612.848.612.282 0 .5-.026.67-.077l-.33 1.826zm14.936-4.672c0-2.072-1.356-3.69-3.91-3.69-2.938 0-4.839 1.966-4.839 4.862 0 2.073 1.121 3.77 3.906 3.77 2.809 0 4.843-1.507 4.843-4.942zm-2.664-.053c0 1.872-.764 2.98-1.972 2.98-.88.012-1.414-.728-1.414-1.838 0-1.315.779-2.8 2.03-2.8 1.01 0 1.356.803 1.356 1.658zm-10.074-3.447c-.314 2.568-.869 5.172-1.303 7.745l-.104.56h2.492c.898-4.97 1.2-6.385 3.082-5.887l.905-2.351c-1.313-.484-2.158.207-2.923 1.189.07-.442.2-.869.168-1.256h-2.317z" id="Rectangle"/></g></g></g></svg>