<svg width="64" height="44" xmlns="http://www.w3.org/2000/svg"><g id="Icons:-Payment" stroke="none" stroke-width="1" fill="none" fill-rule="evenodd"><g id="Bancontact-alt" transform="translate(-18 -8)"><g id="Payment/Bancontact/Bancontact-alt" transform="translate(18 8)"><rect id="Rectangle" stroke="#005498" stroke-width="1.5" fill="#FFF" x="0" y="0" width="64" height="44" rx="8"/><g id="Group" transform="translate(6 6)"><path d="M14.061 18.821h9.302l5.208-5.544h9.335l-7.927 8.792H.666v-5.872h15.721l-2.326 2.624" id="Fill-5" fill="#005498"/><path d="M37.906 13.277H28.57l-5.208 5.577h-9.367l7.926-8.792H51.27v5.84H35.547l2.359-2.625" id="Fill-6" fill="#FFD800"/><path d="M47.502 7.897c-.426.262-.983.393-1.507.393-1.506 0-2.85-1.115-2.85-2.657s1.213-2.657 2.752-2.657c.557 0 1.18.098 1.605.36v1.641c-.328-.295-.819-.394-1.376-.394-.524 0-1.146.427-1.146 1.116 0 .59.622.951 1.146.951.59 0 .95-.033 1.376-.36v1.607" id="Fill-7" fill="#005498"/><path d="M51.334 6.65v1.247c-1.343.984-2.882.164-2.882-.984V4.616h-.655v-1.51h.655V1.894L50.286.91v2.198h1.048v1.378h-.95v2.132c0 .394.655.361.95.033" id="Fill-8" fill="#005498"/><path d="M37.447 6.65v1.247c-1.376.984-2.882.164-2.882-.984V4.616h-.655v-1.51h.655V1.894L36.432.91v2.198h1.015v1.378h-.983v2.132c0 .394.688.361.983.033" id="Fill-12" fill="#005498"/><path d="M22.151 7.897c-.425.262-.917.393-1.473.393-1.54 0-2.85-1.115-2.85-2.657s1.212-2.657 2.719-2.657c.557 0 1.179.098 1.604.36v1.641c-.36-.295-.786-.394-1.343-.394-.556 0-1.178.427-1.178 1.116 0 .59.655.951 1.178.951.557 0 .918-.033 1.343-.36v1.607" id="Fill-14" fill="#005498"/><path d="M17.468 4.878v3.314h-1.834V5.338c0-1.017-1.474-.984-1.474 0v2.854h-1.834V3.107h1.867v.426c1.54-1.148 3.275-.098 3.275 1.345" id="Fill-15" fill="#005498"/><path d="M33.648 4.878v3.314h-1.834V5.338c0-1.017-1.474-.984-1.474 0v2.854h-1.835V3.107h1.835v.426c1.572-1.148 3.308-.098 3.308 1.345" id="Fill-16" fill="#005498"/><path d="M40.559 4.321c.622.033.425.492-.066.492-.95 0-2.49.328-2.719 1.673-.393 2.264 2.49 2.034 3.276 1.542l.065.164h1.704V4.714c0-1.64-2.62-2-4.455-1.377l-.295 1.41c.82-.393 1.933-.46 2.49-.426zm.425 1.64v.623c0 .69-1.343.886-1.343.164 0-.656.983-.852 1.343-.787z" id="Fill-17" fill="#005498"/><path d="M9.607 4.321c.59.033.393.492-.098.492-.95 0-2.456.328-2.686 1.673C6.365 8.75 9.345 8.52 10.1 8.028l.032.164h1.736V4.714c0-1.64-2.62-2-4.454-1.377l-.262 1.41c.753-.393 1.9-.46 2.456-.426zm.426 1.64v.623c0 .69-1.376.886-1.376.164 0-.656.983-.852 1.376-.787z" id="Fill-29" fill="#005498"/><path d="M36.464 6.617V4.485h.983V3.107h-1.015V.909l-1.867.984v1.214h-.655v1.51h.655v2.296c0 1.148 1.506 1.968 2.882.984V6.65c-.295.328-.983.361-.983-.033" id="Fill-20" fill="#005498"/><path d="M.699.548v7.611h3.668C6.56 8.126 7.446 5.436 5.48 4.222 7.053 2.812 5.808.548 4.105.548H.699zm2.096 4.56h.819c1.015 0 1.113 1.542.032 1.542h-.851V5.108zm.819-3.018c.95.426.622 1.443.032 1.443h-.851V2.09c0-.033.59-.066.819 0z" id="Fill-21" fill="#005498"/><path d="M22.151 6.29c-.425.327-.786.36-1.343.36-.523 0-1.178-.36-1.178-.951 0-.69.622-1.116 1.178-1.116.557 0 .983.099 1.343.394v-1.64c-.425-.263-1.047-.361-1.604-.361-1.507 0-2.719 1.115-2.719 2.657s1.31 2.657 2.85 2.657c.556 0 1.048-.13 1.473-.393V6.289" id="Fill-22" fill="#005498"/><path d="M14.193 3.533v-.426h-1.867v5.085h1.834V5.338c0-.984 1.474-1.017 1.474 0v2.854h1.834V4.878c0-1.443-1.736-2.493-3.275-1.345" id="Fill-23" fill="#005498"/><path d="M30.34 3.533v-.426h-1.835v5.085h1.835V5.338c0-.984 1.474-1.017 1.474 0v2.854h1.834V4.878c0-1.443-1.736-2.493-3.308-1.345" id="Fill-24" fill="#005498"/><path d="M47.502 6.29c-.426.327-.786.36-1.376.36-.524 0-1.146-.36-1.146-.951 0-.69.622-1.116 1.146-1.116.557 0 1.048.099 1.376.394v-1.64c-.426-.263-1.048-.361-1.605-.361-1.54 0-2.751 1.115-2.751 2.657s1.343 2.657 2.85 2.657c.523 0 1.08-.13 1.506-.393V6.289" id="Fill-25" fill="#005498"/><path d="M50.384 6.617V4.485h.95V3.107h-1.048V.909l-1.834.984v1.214h-.655v1.51h.655v2.296c0 1.148 1.54 1.968 2.882.984V6.65c-.295.328-.95.361-.95-.033" id="Fill-26" fill="#005498"/><path d="M25.296 2.943c-1.507 0-2.817 1.18-2.817 2.69 0 1.542 1.31 2.69 2.85 2.69 1.539 0 2.816-1.083 2.816-2.624 0-1.575-1.277-2.756-2.85-2.756zm1.08 2.756c0 .558-.49 1.017-1.047 1.017-.557 0-1.016-.46-1.016-1.083 0-.656.459-1.017 1.016-1.017.556 0 1.047.361 1.047 1.083z" id="Fill-19" fill="#005498"/><path d="M23.462 28.926c0-1.772-.721-2.92-2.522-2.92-1.704 0-2.719 1.28-2.719 2.723 0 1.575 1.212 2.723 2.915 2.723 1.474 0 2.227-.59 2.227-.59v-1.51c-.622.329-1.31.525-1.8.525-.984 0-1.508-.262-1.508-.951h3.407zm-3.472-1.017c.098-.492.491-.656.851-.656s.82.164.82.656H19.99z" id="Fill-37" fill="#005498"/><path d="M4.236 29.188l1.507-2.165v4.298h1.965l.032-7.447H5.743l-1.507 2.23-1.54-2.23H.7l.03 7.446h1.965v-4.298l1.54 2.165" id="Fill-38" fill="#005498"/><path d="M25.59 28.335c.197-.426.623-.787 1.18-.787.294 0 .622.131.851.295v-1.607c-.164-.197-.426-.263-.687-.263-.46 0-1.082.263-1.343.59v-.524h-1.769v5.282h1.769v-2.986" id="Fill-39" fill="#005498"/><path d="M10.524 30.993c.623.262 1.376.36 1.867.36 1.9 0 2.457-.984 2.457-1.804 0-.951-.983-1.476-1.867-1.607-.131 0-.492-.099-.492-.263 0-.131.099-.295.525-.295.36 0 1.015.131 1.342.295l-.065-1.378c-.491-.163-1.18-.295-1.703-.295-1.08 0-2.031.656-2.031 1.706 0 .82.59 1.247 1.54 1.444.392.032.753.196.753.393 0 .263-.262.328-.524.328-.23 0-.819.066-1.802-.328v1.444" id="Fill-40" fill="#005498"/><path d="M17.238 29.713v-2.165h1.016v-1.41h-1.081v-2.264l-1.867.984v1.28h-.655v1.509h.655v2.362c0 1.18 1.54 1.968 2.948.984v-1.28c-.295.296-1.016.361-1.016 0" id="Fill-41" fill="#005498"/><path d="M8.231 26.138h1.966v5.117H8.23v-5.117z" id="Fill-42" fill="#005498"/><path d="M9.214 25.973c.59 0 1.081-.492 1.081-1.082 0-.558-.491-1.017-1.08-1.017a1.02 1.02 0 00-1.016 1.017c0 .59.458 1.082 1.015 1.082" id="Fill-43" fill="#005498"/><path d="M41.508 30.993c.623.262 1.376.36 1.867.36 1.9 0 2.49-.984 2.49-1.804 0-.951-.983-1.476-1.9-1.607-.131 0-.491-.099-.491-.263 0-.131.098-.295.556-.295.36 0 .983.131 1.343.295l-.098-1.378c-.491-.163-1.18-.295-1.703-.295-1.081 0-2.03.656-2.03 1.706 0 .82.589 1.247 1.538 1.444.394.032.754.196.754.393 0 .263-.262.328-.524.328-.23 0-.82.066-1.802-.328v1.444" id="Fill-44" fill="#005498"/><path d="M35.744 29.156c-.623.459-1.114.557-1.933.557-1.244 0-2.358-1.017-2.358-2.066 0-1.149.623-2.231 2.358-2.231.786 0 1.441.13 1.933.59v-1.771c-.623-.361-1.474-.46-2.227-.46-2.26 0-3.996 1.608-3.996 3.806 0 2.165 1.9 3.806 4.127 3.806.753 0 1.473-.165 2.096-.525v-1.706" id="Fill-45" fill="#005498"/><path d="M38.888 27.286c.622.032.426.525-.065.525-.983 0-2.555.328-2.752 1.673-.425 2.296 2.522 2.1 3.308 1.607l.066.131h1.769V27.68c0-1.673-2.686-2.001-4.586-1.378l-.262 1.411c.819-.394 1.965-.46 2.522-.426zm.426 1.673v.623c0 .722-1.376.886-1.376.164 0-.656 1.016-.82 1.376-.787z" id="Fill-46" fill="#005498"/><path d="M47.96 26.531v-2.657h-1.834v7.447h1.835V28.4c0-.984 1.506-1.017 1.506 0v2.92h1.867v-3.38c0-1.508-1.768-2.558-3.373-1.41" id="Fill-47" fill="#005498"/></g></g></g></g></svg>