<svg width="82" height="18" xmlns="http://www.w3.org/2000/svg"><g id="Icons:-Payment" stroke="none" stroke-width="1" fill="none" fill-rule="evenodd"><g id="WesternUnion" transform="translate(-9 -21)" fill="#000"><g id="Payment/WesternUnion/WesternUnion" transform="translate(9 21)"><path d="M22.79 2.612c0 1.03.432 1.776 1.662 2.142l2.243.655c.3.089.539.255.539.554 0 .355-.307.655-.772.655-.3 0-.49-.107-.612-.262-.122-.166-.175-.39-.175-.612h-3.03c0 2.083 1.773 2.68 3.7 2.68 2.26 0 3.846-.821 3.846-2.782 0-.964-.435-1.677-1.442-2.097-.809-.344-1.925-.566-2.535-.743-.333-.1-.524-.222-.524-.51 0-.244.218-.466.728-.466.41 0 .688.17.7.67h2.84c0-1.861-1.502-2.491-3.496-2.491-2.337 0-3.671.945-3.671 2.607zM70.135.063v17.758h1.005V.063h-1.005zm10.124.058c-.591 0-1.078.479-1.078 1.064 0 .59.487 1.063 1.078 1.063a1.064 1.064 0 000-2.127zm0 .131c.517 0 .889.415.888.933 0 .523-.37.917-.888.917-.52 0-.903-.394-.903-.917 0-.518.383-.933.903-.933zM.678.223L2.41 8.221h3.44l.743-5.186h.015L7.35 8.22h3.437L12.521.223H9.68L9.01 5.25h-.03L8.238.223H4.96L4.218 5.25h-.015L3.518.223H.678zm13.78 0v7.998h6.177V6.138h-3.147v-.904H20.3V3.151h-2.812v-.845h3.045V.223h-6.075zm17.539 0v2.142h1.982V8.22h3.16V2.365h1.982V.223h-7.124zm9.265 0v7.998h6.191V6.138h-3.146v-.904h2.811V3.151h-2.811v-.845h3.044V.223h-6.089zm8.537 0v7.998H52.9V5.365h.365c.509 0 .705.155.772.554.11.687.205 1.703.393 2.302h3.103c-.365-1.208-.333-2.344-.51-3.03-.155-.61-.58-.954-1.355-1.02v-.015c1.197-.288 1.588-.988 1.588-1.908 0-1.507-1.007-2.025-2.724-2.025h-4.734zM52.9 2.044h.292c.62 0 1.02.113 1.02.7 0 .598-.44.815-1.05.815H52.9V2.044zM59.748.223v7.998h2.564V3.34h.03l1.689 4.88h3.802V.223h-2.578V5.06h-.015L63.55.223h-3.802zm17.554 0v17.568h1.005V.223h-1.005z" id="Path"/><path d="M79.866.587v1.195h.145v-.554h.262l.335.554h.175l-.35-.554c.212-.005.365-.086.365-.32 0-.197-.107-.32-.423-.32h-.51zm.145.102h.335c.147 0 .292.019.292.204 0 .243-.24.219-.408.219h-.219V.689zM53.222 9.575c-2.758 0-4.137 1.718-4.137 4.21 0 2.493 1.378 4.21 4.137 4.21 2.758 0 4.123-1.717 4.123-4.21 0-2.492-1.365-4.21-4.123-4.21zm0 2.084c.51 0 .845.321.845 2.126 0 1.85-.358 2.127-.845 2.127s-.86-.277-.86-2.127c0-1.805.35-2.126.86-2.126zM22.529 9.78v5.316c0 1.928 1.386 2.9 3.802 2.9 2.414 0 3.802-.972 3.802-2.9V9.78h-3.176v5.186c0 .631-.294.874-.626.874s-.627-.243-.627-.874V9.78H22.53zm10.226 0v7.997h2.578V12.91h.015l1.69 4.866h3.802V9.779h-2.564v4.851h-.03l-1.689-4.85h-3.802zm10.765 0v7.997h3.176V9.779H43.52zm16.228 0v7.997h2.564V12.91h.03l1.689 4.866h3.802V9.779h-2.578v4.851h-.015l-1.69-4.85h-3.802z" id="Path"/></g></g></g></svg>