<svg width="72" height="26" xmlns="http://www.w3.org/2000/svg"><g id="Icons:-Payment" stroke="none" stroke-width="1" fill="none" fill-rule="evenodd"><g id="Paybox" transform="translate(-14 -17)" fill="#005992"><g id="Payment/Paybox/Paybox" transform="translate(14 17)"><path d="M4.08 2.54H2.688v7.15H4.08c2.484 0 4.311-.948 4.311-3.69 0-2.654-2-3.46-4.311-3.46m.144 9.058H2.688v7.586H.578V.633H3.97c3.62 0 6.497 1.27 6.497 5.366 0 3.838-2.677 5.599-6.243 5.599" id="Fill-7"/><path d="M18.386 14.185c-.6-.865-2.024-1.442-2.88-1.442-1.618 0-2.9.718-2.9 2.538 0 1.53 1.249 2.367 2.678 2.367 1.078 0 3.102-.983 3.102-2.222v-1.24zm.685 4.816c-.23 0-.259-.287-.259-.287l-.283-.809c-.94.955-2.052 1.472-3.39 1.472-2.391 0-4.672-1.384-4.672-4.038 0-2.827 2.081-4.299 4.758-4.299 1.166 0 2.247.374 3.16 1.098v-1.474c0-1.872-1.314-2.652-3.023-2.652-2.021 0-3.24.81-3.24.81l-.373-1.098c1.081-.865 2.474-1.417 3.846-1.417 2.675 0 4.866 1.3 4.866 4.243v8.451h-1.39z" id="Fill-8"/><path d="M23.432 6.606l2.758 7.612c.315.85.63 1.862.84 2.633h.053c.237-.771.499-1.756.816-2.687l2.521-7.558h2.443l-3.468 9.181c-1.655 4.418-2.785 6.68-4.36 8.09-1.157.985-2.26 1.384-2.839 1.49l-.577-1.968c.577-.16 1.34-.532 2.023-1.145.63-.506 1.393-1.41 1.944-2.61.105-.238.184-.399.184-.557 0-.134-.054-.32-.184-.586L20.91 6.606h2.522" id="Fill-9"/><path d="M36.186 13.912c0 .36.03.671.118.982.468 1.68 1.686 2.716 3.415 2.716 2.754 0 4.19-2.096 4.19-4.657 0-2.74-1.582-4.809-4.248-4.809-1.934 0-2.977 1.19-3.357 2.612a3.75 3.75 0 00-.118.983v2.173zm0-13.113v7.448h.059c.616-.982 1.716-1.888 3.913-1.888 3.43 0 6.022 2.535 5.994 6.724 0 3.802-2.302 6.362-5.73 6.362-2.314 0-3.65-1.06-4.441-2.456h-.058l-.117 2.172h-1.883c.089-.854.118-2.109.118-3.22V.8h2.145z" id="Fill-10"/><path d="M53.548 18.14c2.578 0 4.036-2.405 4.036-5.302 0-2.536-1.309-5.187-4.018-5.187-2.71 0-4.055 2.556-4.055 5.32 0 2.688 1.457 5.17 4.017 5.17h.02zm-.075 1.343c-3.346 0-6.028-2.613-6.028-6.474 0-4.051 2.831-6.702 6.196-6.702 3.457 0 6.045 2.67 6.045 6.455 0 4.374-2.999 6.721-6.194 6.721h-.019z" id="Fill-11"/><path d="M62.806 6.606l1.764 2.693c.46.7.844 1.347 1.253 2.046h.076c.41-.75.819-1.398 1.227-2.072l1.74-2.667h2.428l-4.219 6.06 4.347 6.475h-2.557L67.05 16.32a38.327 38.327 0 01-1.33-2.177h-.05c-.41.752-.844 1.425-1.305 2.177l-1.79 2.822h-2.48l4.399-6.397L60.3 6.606h2.506" id="Fill-12"/></g></g></g></svg>