<svg width="34" height="42" xmlns="http://www.w3.org/2000/svg"><g id="Icons:-Payment" stroke="none" stroke-width="1" fill="none" fill-rule="evenodd"><g id="Switch-alt" transform="translate(-33 -9)"><g id="Payment/Switch/Switch-alt" transform="translate(33 9)"><path d="M.476 17.04C.476 8.16 7.806.961 16.851.961c9.044 0 16.375 7.199 16.375 16.077 0 8.881-7.331 16.078-16.375 16.078S.476 25.92.476 17.04zm16.375 14.953c8.41 0 15.228-6.696 15.228-14.954 0-8.257-6.817-14.951-15.228-14.951S1.623 8.782 1.623 17.039c0 8.258 6.817 14.954 15.228 14.954z" id="Fill-3" fill="#FFF"/><path d="M21.366 13.66c2.6 3.868 1.472 9.046-2.519 11.563-3.99 2.52-9.331 1.427-11.93-2.44l2.476-1.614c1.69 2.51 5.158 3.222 7.749 1.586 2.59-1.636 3.324-4.999 1.636-7.51l2.588-1.585" id="Fill-1" fill="#FFF"/><path d="M27.133 10.112C24.53 6.246 19.185 5.16 15.2 7.682c-3.987 2.525-5.108 7.705-2.504 11.57l2.52-1.55c-1.689-2.509-.96-5.87 1.628-7.51 2.589-1.64 6.057-.932 7.75 1.576l2.54-1.656" id="Fill-2" fill="#000"/><path d="M26.069 36.472h.812l-.339 1.959h2.205l.339-1.959h.812l-.815 4.712h-.812l.343-1.986H26.41l-.343 1.986h-.812l.815-4.712" id="h-2" fill="#FFF"/><path d="M20.56 38.922l.002-.013c.231-1.34 1.405-2.437 2.804-2.437.852 0 1.314.303 1.682.734l-.627.612c-.31-.35-.665-.585-1.193-.585-.878 0-1.653.74-1.812 1.663l-.003.013c-.159.922.352 1.67 1.237 1.67.568 0 .97-.23 1.432-.606l.428.538c-.57.512-1.155.835-2.02.835-1.346 0-2.165-1.07-1.93-2.424" id="c-3" fill="#FFF"/><path d="M18.434 37.24H16.97l.133-.768h3.75l-.133.767h-1.466l-.682 3.945h-.819l.682-3.945" id="t-3" fill="#FFF"/><path d="M15.416 36.472h.812l-.815 4.712h-.812l.815-4.712" id="i-2" fill="#FFF"/><path d="M7.5 36.485h.878l.498 3.494 1.742-3.507h.686l.53 3.507 1.706-3.494h.852l-2.425 4.746h-.706l-.55-3.386-1.721 3.386h-.7l-.79-4.746" id="w-2" fill="#FFF"/><path d="M2.765 40.565l.59-.592c.376.39.786.612 1.354.612.502 0 .86-.242.92-.592l.003-.014c.058-.336-.095-.518-.918-.72-.942-.242-1.445-.538-1.295-1.407l.002-.013c.14-.808.897-1.367 1.814-1.367.674 0 1.172.209 1.575.593l-.544.626c-.362-.317-.748-.485-1.17-.485-.476 0-.797.249-.85.559l-.002.013c-.063.364.12.525.974.74.935.243 1.375.6 1.24 1.38l-.002.014c-.153.882-.923 1.407-1.894 1.407-.706 0-1.33-.25-1.797-.754" id="s-3" fill="#FFF"/></g></g></g></svg>