<svg width="74" height="24" xmlns="http://www.w3.org/2000/svg"><g id="Icons:-Payment" stroke="none" stroke-width="1" fill="none" fill-rule="evenodd"><g id="AliPay" transform="translate(-13 -18)"><g id="Payment/AliPay/AliPay" transform="translate(13 18)"><path d="M57.739 0l-.895.07s-.93.209-.93.627V2.09l-4.028.14v-.767h-1.86s-1.858.14-1.858.696v5.086h7.746v3.483h-5.336v1.393h5.336v7.976l3.96-.418V12.12h5.68v-1.393h-5.68V7.245h6.68v-.697h.171s.517 0 .827-.836l.31-2.299s-.035-1.672-1.79-1.672l-6.198.21V0h-2.135zm6.129 3.204s.55-.035.585.558l-.276 2.124H51.886V3.587l4.028-.104v.035l3.96-.174 3.994-.14z" id="path215" fill="#003F96"/><path d="M33.673 10.728l1.273 1.497 1.48 1.324s.414.418.827 0l1.446-1.324 1.274-1.497s.448-.384 0-.871L38.7 8.394l-1.446-1.289s-.413-.418-.826 0L34.98 8.394l-1.308 1.463s-.38.487 0 .87" id="path971" fill="#EC6C00"/><path d="M66.725 15.325s.241-.313 0-.662l-.998-1.114-1.102-.976s-.31-.313-.654 0l-1.102.976-.964 1.114s-.275.349 0 .662l.964 1.115 1.102.975s.344.348.654 0l1.102-.975.998-1.115" id="path973" fill="#EC6C00"/><path d="M7.678 9.056h11.81s-.345 1.358-1.206 3.065c0 0-1.48 2.925-3.753 5.12 0 0-4.269 4.04-7.023 4.04 0 0-2.032 0-3.34-.766 0 0-1.618-1.01-1.618-3.1 0 0 0-2.752 4.166-3.553 0 0-2.686-.174-4.097 1.254 0 0-1.309 1.254-1.309 3.448 0 0 0 2.09 1.894 3.344 0 0 1.687 1.15 4.097 1.114l.551.035s4.683-.244 9.02-3.9c0 0 3.72-3.135 5.578-7.628 0 0 .586-1.394.896-2.787l.206-1.08v.035h-6.37V4.632h8.023V3.274H17.18V.104h-2.1l-.896.07s-.93.21-.93.627v2.473H5.51v1.358h7.747v3.065H7.678v1.359" id="path979" fill="#003F96"/><path d="M34.155 0l-.07.662-.447 1.637s-.482 1.114-1.205 1.985v15.708l-3.96-.487V7.035s-1.48.767-2.754 1.254l-.516-.835s1.342-.94 2.685-2.264c0 0 2.651-2.682 2.651-4.493 0 0 0-.418.93-.627l.895-.07h1.79" id="path981" fill="#003F96"/><path d="M33.053 6.026h7.437v14.489l3.96.07V6.024h2.065V4.633h-2.066V0h-2.135l-.895.07s-.93.209-.93.627v3.935h-7.436v1.394" id="path983" fill="#003F96"/><path d="M15.046 14.454s-5.027-2.229-8.126-2.333c0 0-2.547-.14-4.648 1.358 0 0-2.203 1.567-2.272 3.901 0 0 0 2.717 2.135 4.25 0 0 1.962 1.427 5.13 1.427h.31l-.517-.035s-2.307 0-3.925-1.149c0 0-1.79-1.289-1.79-3.413 0 0 0-2.3 1.584-3.483 0 0 1.342-.976 3.511-1.01l3.065.348 2.375.94 5.681 2.926s3.89 2.055 7.61 3.309c0 0 12.945 4.354 41.9 1.498l1.55-.314s.55-.244.998-.975c0 0 .38-.592 2.961-2.926 0 0 1.86-1.706 1.24-2.264l-.895.14s-9.469 2.159-23.895 2.751c0 0-16.216.662-24.238-1.672 0 0-5.544-1.602-9.744-3.274" id="path985" fill="#EC6C00"/></g></g></g></svg>