<svg width="100" height="60" xmlns="http://www.w3.org/2000/svg"><g id="Icons:-Payment" stroke="none" stroke-width="1" fill="none" fill-rule="evenodd"><g id="AliPay-card-flat" fill="#9B9B9B"><g id="Payment/AliPay/AliPay-card-flat"><path d="M0 4.007C0 1.794 1.8 0 3.997 0h92.006A4.003 4.003 0 01100 4.007v51.986C100 58.206 98.2 60 96.003 60H3.997A4.003 4.003 0 010 55.993V4.007zm68.914 32.975v-6.861h-5.336v-1.393h5.336v-3.483h-7.746v-5.086c0-.557 1.859-.696 1.859-.696h1.859v.766l4.028-.14v-1.392c0-.418.93-.627.93-.627l.895-.07h2.135v1.95l6.197-.209c1.756 0 1.79 1.672 1.79 1.672l-.31 2.3c-.31.835-.826.835-.826.835h-.172v.697h-6.68v3.483h5.682v1.393h-5.681v6.496c8.137-.848 13.049-1.968 13.049-1.968l.895-.14c.62.558-1.24 2.264-1.24 2.264-2.582 2.334-2.96 2.926-2.96 2.926-.448.731-1 .975-1 .975l-1.548.314c-28.956 2.856-41.902-1.498-41.902-1.498-3.189-1.075-6.504-2.74-7.384-3.192-.553.554-.913.858-.913.858-4.338 3.657-9.021 3.901-9.021 3.901l-.55-.035a7.473 7.473 0 01-.5-.01c.164.01.258.01.258.01l.517.035h-.31c-3.168 0-5.13-1.428-5.13-1.428C13 38.097 13 35.38 13 35.38c.069-2.334 2.272-3.9 2.272-3.9 2.1-1.499 4.648-1.36 4.648-1.36 3.1.105 8.126 2.334 8.126 2.334.46.184.937.366 1.421.546a22.523 22.523 0 001.815-2.88c.861-1.706 1.205-3.064 1.205-3.064h-11.81v-1.359h5.579v-3.065h-7.747v-1.358h7.747v-2.473c0-.418.93-.627.93-.627l.894-.07h2.1v3.17h8.023v1.358H30.18v3.065h6.37v-.034l-.207 1.08c-.31 1.392-.896 2.786-.896 2.786-.74 1.787-1.773 3.359-2.75 4.604 2.774.925 5.092 1.595 5.092 1.595 1.095.319 2.344.582 3.684.798v-11.49s-1.48.766-2.755 1.253l-.516-.835s1.342-.94 2.685-2.264c0 0 2.651-2.682 2.651-4.493 0 0 0-.418.93-.627l.895-.07h1.79l-.068.662-.448 1.637s-.482 1.114-1.205 1.985V37.02c2.707.255 5.527.38 8.057.432V24.026h-7.437v-1.394h7.437v-3.935c0-.418.93-.627.93-.627l.894-.07h2.135v4.632h2.066v1.394h-2.066v13.46c2.743-.011 4.58-.086 4.58-.086 2.444-.1 4.747-.246 6.885-.418zm-40.977-2.151c-.133.139-.269.275-.408.41 0 0-4.269 4.04-7.023 4.04 0 0-2.032 0-3.34-.766 0 0-1.618-1.01-1.618-3.1 0 0 0-2.524 3.659-3.441a5.82 5.82 0 01.231-.007l3.065.348 2.375.94 3.06 1.576zm51.788-1.506s.241-.313 0-.662l-.998-1.114-1.102-.976s-.31-.313-.654 0l-1.102.976-.964 1.114s-.275.349 0 .662l.964 1.115 1.102.975s.344.348.654 0l1.102-.975.998-1.115zm-2.857-12.12s.55-.036.585.557l-.276 2.124H64.886v-2.299l4.028-.104v.035l3.96-.174 3.994-.14zm-30.195 7.523l1.273 1.497 1.48 1.324s.414.418.827 0l1.446-1.324 1.274-1.497s.448-.384 0-.871L51.7 26.394l-1.446-1.289s-.413-.418-.826 0l-1.446 1.289-1.308 1.463s-.38.487 0 .87z" id="Rectangle"/></g></g></g></svg>