<svg width="80" height="20" xmlns="http://www.w3.org/2000/svg"><g id="Icons:-Payment" stroke="none" stroke-width="1" fill="none" fill-rule="evenodd"><g id="WebMoney" transform="translate(-9 -20)" fill="#0068A3"><g id="Payment/WebMoney/WebMoney" transform="translate(9 20)"><path d="M69.876.089c1.568 0 3.052.362 4.375 1.006.208.097.415.205.623.324l-.92.816-1.38-1.417-2.332 2.063-1.384-1.5-4.343 3.885L67.3 8.313l-1.094.955 2.742 3.05-1.088.952 3.919 4.329 2.325-2.126 2.011 2.278c-.4.308-.835.599-1.315.867a9.967 9.967 0 01-4.923 1.294c-5.5 0-9.986-4.453-9.986-9.91 0-5.46 4.486-9.912 9.986-9.912" id="Fill-1"/><path d="M68.056 9.374L70.43 7.25l2.14 2.36-2.375 2.121-2.138-2.356" id="Fill-2"/><path d="M69.744 13.446l2.375-2.122 2.138 2.357-2.374 2.123-2.139-2.358" id="Fill-3"/><path d="M66.357 5.349l2.374-2.122 2.138 2.357-2.375 2.122-2.137-2.357" id="Fill-4"/><path d="M70.714 4.207l1.781-1.591 1.603 1.767-1.78 1.592-1.604-1.768" id="Fill-5"/><path d="M73.878 11.496l1.782-1.591 1.603 1.768-1.78 1.591-1.605-1.768" id="Fill-6"/><path d="M75.445 15.067l1.78-1.592 1.605 1.768-1.781 1.59-1.604-1.766" id="Fill-7"/><path d="M76.163 6.884l1.187-1.061L78.419 7l-1.187 1.061-1.07-1.178" id="Fill-8"/><path d="M74.646 3.382l1.187-1.06L76.902 3.5l-1.188 1.06-1.068-1.177" id="Fill-9"/><path d="M77.68 10.385l1.188-1.06 1.069 1.177-1.187 1.061-1.07-1.178" id="Fill-10"/><path d="M72.356 7.761l1.78-1.591 1.604 1.767-1.78 1.591-1.604-1.767" id="Fill-11"/><path d="M4.723 8.291h-.08L3.14 13.935H1.91L.063 5.917H1.34l1.276 5.982h.08l1.481-5.982H5.19l1.584 5.982h.08l1.162-5.982h1.333l-1.846 8.018h-1.23L4.723 8.29" id="Fill-12"/><path d="M14.398 12.69v.86a4.037 4.037 0 01-2.017.52c-1.914 0-2.7-1.176-2.7-2.963 0-1.718.877-2.962 2.587-2.962 1.423 0 2.3.916 2.3 2.759v.418h-3.713c0 1.357.558 1.957 1.731 1.957.616 0 1.185-.215 1.812-.588zm-3.52-2.125h2.608c-.056-1.188-.638-1.662-1.253-1.662-.695 0-1.23.531-1.355 1.662z" id="Fill-13"/><path d="M16.79 8.563c.342-.18.923-.418 1.538-.418 1.413 0 2.176.972 2.176 2.782 0 2.114-1.025 3.143-2.677 3.143-.604 0-1.538-.192-2.222-.554V5.623l1.185-.283v3.223zm-.011 4.535c.364.158.763.18 1.048.18.843 0 1.481-.52 1.481-2.35 0-1.438-.524-1.901-1.287-1.901-.456 0-.786.124-1.242.373v3.698z" id="Fill-14"/><path d="M25.689 12.238h.057l2.438-6.321h1.413v8.018h-1.23V8.122h-.103l-2.325 5.813h-.729l-2.324-5.677h-.103v5.677h-1.025V5.917h1.378l2.553 6.321" id="Fill-15"/><path d="M30.85 11.107c0-1.979 1.094-2.962 2.598-2.962 1.504 0 2.598.983 2.598 2.962 0 1.934-1.037 2.963-2.598 2.963s-2.598-1.029-2.598-2.963zm4 0c0-1.526-.628-2.17-1.402-2.17-.752 0-1.402.644-1.402 2.17 0 1.55.593 2.171 1.402 2.171.809 0 1.401-.62 1.401-2.17z" id="Fill-16"/><path d="M37.128 8.982c.513-.306 1.595-.837 2.905-.837 1.368 0 1.88.531 1.88 1.696v4.094h-1.185V10.1c0-.893-.444-1.052-1.025-1.052-.456 0-1.037.204-1.39.408v4.478h-1.185V8.98" id="Fill-17"/><path d="M47.69 12.69v.86a4.035 4.035 0 01-2.017.52c-1.914 0-2.7-1.176-2.7-2.963 0-1.718.877-2.962 2.586-2.962 1.425 0 2.302.916 2.302 2.759v.418h-3.714c0 1.357.558 1.957 1.731 1.957.616 0 1.185-.215 1.811-.588zm-3.52-2.125h2.608c-.056-1.188-.638-1.662-1.253-1.662-.695 0-1.23.531-1.356 1.662z" id="Fill-18"/><path d="M52.293 8.337h1.22L51.45 13.99c-.57 1.56-1.265 2.375-2.575 2.375v-.927c.775 0 1.253-.611 1.527-1.448l-2.188-5.654h1.254l1.458 4.161h.068l1.3-4.161" id="Fill-19"/></g></g></g></svg>