<svg width="68" height="43" xmlns="http://www.w3.org/2000/svg"><g id="Icons:-Credit-card" stroke="none" stroke-width="1" fill="none" fill-rule="evenodd"><g id="Cirrus-flat" transform="translate(-17 -9)" fill="#979797"><g id="Credit-card/Cirrus/Cirrus-flat" transform="translate(17 9)"><path d="M39.74 17.709c-.051-.301-.11-.6-.174-.896h-12.19c.155-.713.348-1.411.577-2.095H38.99a19.713 19.713 0 00-.843-2.092h-9.349c.34-.723.724-1.422 1.147-2.094H37a19.905 19.905 0 00-1.518-2.095h-4.02a20.084 20.084 0 012.01-2.093A19.906 19.906 0 0020.11 1.226C9.117 1.226.205 10.08.205 21c0 10.922 8.912 19.775 19.905 19.775 5.142 0 9.83-1.937 13.362-5.117a19.784 19.784 0 002.01-2.095h-4.02a19.934 19.934 0 01-1.518-2.093h7.055c.423-.672.806-1.371 1.147-2.094h-9.35c-.318-.678-.6-1.377-.843-2.094H38.99c.202-.598.375-1.209.52-1.831.485.501 1.171.74 1.976.74 2.185 0 2.99-1.03 3.463-1.501l-.238 1.367h2.852c.085-.76.233-1.53.388-2.256l1.364-6.196h-3.037s-.827 3.856-.825 3.854c-.298 1.36-.771 2.31-2.35 2.31-1.341 0-1.408-.999-1.128-2.31l.825-3.854h-3.037l-.023.104zm-20.156-1.854c-.178.777-.271 1.216-.511 2.16-1.497-.63-3.504-.96-5.044-.005-1.453.919-1.943 2.352-1.838 3.94.108.765.684 1.51 1.497 1.835 1.41.516 2.754.327 4.251-.433-.213.956-.373 1.707-.56 2.39-1.794.498-3.499.662-5.293.07-1.604-.555-2.908-1.989-3.014-3.537-.364-2.486.833-5.03 3.27-6.196 2.264-1.012 4.848-.837 7.242-.224zm1.29 1.75h3.047l-1.811 8.452h-3.046l1.81-8.452zm18.022-.036c-2.241-.294-2.88.8-3.483 1.343.072-.44.205-.87.178-1.307h-2.786c-.402 2.617-1.115 5.265-1.672 7.883l-.146.567h3.172c.378-1.716.816-4.307 1.321-5.09.505-.784 1.345-1.41 2.448-1.033l.968-2.363zm-6.929 0c-2.24-.294-2.88.8-3.482 1.343.072-.44.204-.87.177-1.307h-2.786c-.401 2.617-1.114 5.265-1.672 7.883l-.146.567h3.172c.378-1.716.816-4.307 1.322-5.09.504-.784 1.344-1.41 2.447-1.033l.968-2.363z" id="Fill-374"/><path d="M65.5 32.023a.64.64 0 01.643-.638.64.64 0 01.642.637.64.64 0 01-.642.64.641.641 0 01-.643-.64zm.643.485a.486.486 0 100-.97.486.486 0 100 .97zm-.087-.205h-.131v-.56h.238c.05 0 .1 0 .144.028.046.03.072.084.072.14a.154.154 0 01-.098.145l.104.247h-.147l-.085-.222h-.097v.222zm0-.318h.073c.027 0 .056.002.08-.01a.077.077 0 00.033-.065.072.072 0 00-.032-.058c-.023-.013-.06-.01-.084-.01h-.07v.143z" id="Fill-376"/><path d="M33.198 6.605l-.703-.727A20.823 20.823 0 0147.02 0c11.566 0 20.94 9.41 20.94 21.016 0 11.607-9.374 21.017-20.94 21.017-3.67 0-7.207-.95-10.33-2.732a20.966 20.966 0 01-3.721-2.703c-.327-.29-.637-.576-.929-.857l.736-.766A19.94 19.94 0 0047.083 41c11.046 0 20-8.954 20-20s-8.954-20-20-20a19.933 19.933 0 00-13.885 5.605z" id="Path-Copy"/><path d="M50.321 20.277c0 1.072.708 1.805 2.319 2.352 1.243.431 1.437.558 1.437.933 0 .535-.555.762-1.752.762-.912 0-1.759-.09-2.74-.325 0 0-.385 1.752-.425 1.953.853.15 2.328.239 3.186.239 3.216 0 4.707-.893 4.707-2.82 0-1.153-.625-1.831-2.151-2.351-1.287-.42-1.43-.518-1.43-.918 0-.449.51-.687 1.498-.687.594 0 1.428.05 2.202.13l.426-1.96a27.696 27.696 0 00-2.688-.17c-3.413 0-4.6 1.306-4.589 2.863" id="Fill-386"/></g></g></g></svg>