<svg width="100" height="60" xmlns="http://www.w3.org/2000/svg"><g id="Icons:-Credit-card" stroke="none" stroke-width="1" fill="none" fill-rule="evenodd"><g id="Cirrus-card-flat" fill="#9B9B9B"><g id="Credit-Card/Cirrus/Cirrus-card-flat"><path d="M0 4.007C0 1.794 1.8 0 3.997 0h92.006A4.003 4.003 0 01100 4.007v51.986C100 58.206 98.2 60 96.003 60H3.997A4.003 4.003 0 010 55.993V4.007zm82.5 37.016a.64.64 0 01.643-.638.64.64 0 01.642.638.64.64 0 01-.642.639.641.641 0 01-.643-.64zm.643.485a.486.486 0 100-.97.486.486 0 100 .97zm-.087-.205h-.131v-.56h.238c.05 0 .1 0 .144.028.046.03.072.084.072.14a.154.154 0 01-.098.145l.104.247h-.147l-.085-.222h-.097v.222zM36.584 24.855c-.178.777-.271 1.216-.511 2.16-1.497-.63-3.504-.96-5.044-.005-1.453.919-1.943 2.352-1.838 3.94.108.765.684 1.51 1.497 1.835 1.41.516 2.754.327 4.251-.433-.213.956-.373 1.707-.56 2.39-1.794.498-3.499.662-5.293.07-1.604-.554-2.908-1.989-3.014-3.537-.364-2.486.833-5.03 3.27-6.196 2.264-1.012 4.848-.837 7.242-.224zm1.29 1.75h3.047l-1.811 8.452h-3.046l1.81-8.452zm18.022-.036c-2.241-.294-2.88.8-3.483 1.343.072-.44.205-.87.178-1.307h-2.786c-.402 2.617-1.115 5.265-1.672 7.882l-.146.568h3.172c.378-1.716.816-4.307 1.321-5.09.505-.784 1.345-1.41 2.448-1.033l.968-2.363zm-6.929 0c-2.24-.294-2.88.8-3.482 1.343.072-.44.204-.87.177-1.307h-2.786c-.401 2.617-1.114 5.265-1.672 7.882l-.146.568h3.172c.378-1.716.816-4.307 1.322-5.09.504-.784 1.344-1.41 2.447-1.033l.968-2.363zm1.226-10.97a20.115 20.115 0 00-1.732 1.838h4.021c.55.665 1.057 1.363 1.518 2.095h-7.056c-.423.672-.807 1.37-1.147 2.094h9.35c.318.678.6 1.376.842 2.092H44.953c-.23.684-.422 1.382-.577 2.095h12.19c.065.296.123.595.173.896l.023-.104h3.037l-.825 3.854c-.28 1.311-.213 2.31 1.128 2.31 1.579 0 2.052-.95 2.35-2.31-.002.002.825-3.854.825-3.854h3.037l-1.364 6.196a23.74 23.74 0 00-.388 2.256H61.71l.238-1.367c-.474.47-1.278 1.5-3.463 1.5-.805 0-1.491-.238-1.977-.739a19.528 19.528 0 01-.519 1.831H44.953c.243.717.525 1.416.843 2.094h9.35A19.754 19.754 0 0154 40.47h-7.055c.46.73.968 1.43 1.517 2.093h4.02a19.784 19.784 0 01-2.008 2.092A19.93 19.93 0 0064.083 50c11.046 0 20-8.954 20-20s-8.954-20-20-20a19.933 19.933 0 00-13.885 5.605l-.005-.005zm-.494-.916a19.904 19.904 0 00-12.59-4.457c-10.992 0-19.904 8.854-19.904 19.774 0 10.922 8.912 19.775 19.905 19.775 4.765 0 9.14-1.664 12.567-4.439.096.087.193.175.292.262a20.966 20.966 0 003.72 2.703 20.787 20.787 0 0010.331 2.732c11.566 0 20.94-9.41 20.94-21.017C84.96 18.41 75.586 9 64.02 9a20.823 20.823 0 00-14.32 5.683zm17.622 14.595c0 1.071.708 1.804 2.319 2.35 1.243.432 1.437.56 1.437.934 0 .535-.555.762-1.752.762-.912 0-1.759-.09-2.74-.325 0 0-.385 1.752-.425 1.953.853.15 2.328.239 3.186.239 3.216 0 4.707-.893 4.707-2.82 0-1.153-.625-1.831-2.151-2.351-1.287-.42-1.43-.518-1.43-.918 0-.449.51-.687 1.498-.687.594 0 1.428.05 2.202.13l.426-1.96a27.696 27.696 0 00-2.688-.17c-3.413 0-4.6 1.306-4.589 2.863z" id="Rectangle"/></g></g></g></svg>