<svg width="100" height="60" xmlns="http://www.w3.org/2000/svg"><g id="Icons:-Payment" stroke="none" stroke-width="1" fill="none" fill-rule="evenodd"><g id="Skrill-card-dark"><g id="Payment/Skrill/Skrill-card-dark"><rect id="Rectangle" fill="#862165" x="0" y="0" width="100" height="60" rx="4"/><path d="M62.808 35.205a2.407 2.407 0 11.002 4.815 2.407 2.407 0 01-.002-4.815zm-18.444-1.299c-.109-.273-.89-2.482-2.782-4.772v9.79l-5.04-.996V20.182h5.04v5.485c1.46-2.189 2.18-5.485 2.18-5.485H49.8c-.597 2.482-3.209 7.06-3.209 7.06 2.344 2.972 3.374 6.139 3.538 6.664h-5.764zm13.25.185c-4.514-.145-6.806-2.17-6.806-6.196v-7.713h4.926v6.29c0 2.41.315 3.444 3.176 3.542v4.006c-.482.103-1.296.071-1.296.071zm-29.525-2.14c-.617.04-2.046.133-2.046 1.42 0 1.553 2.057 1.553 2.83 1.553 1.356 0 3.113-.4 4.369-.776 0 0 .7-.247 1.296-.5l.055-.015v4.252l-.076.023c-1.481.518-3.204 1.016-6.397 1.016-5.506 0-7.456-3.207-7.456-5.955 0-1.584.678-5.312 6.984-5.742.534-.032 1.953-.114 1.953-1.444 0-1.098-1.161-1.745-3.114-1.745-2.14 0-4.218.546-5.48 1.064v-4.38c1.89-.494 4.017-.742 6.512-.742 5.384 0 7.795 3.035 7.795 6.042 0 3.41-2.698 5.626-7.225 5.93zm32.278-11.77h4.885v13.71h-4.885V20.18zm14.083 17.87V20.18h4.886v18.743l-4.886-.873zm-7.129 0l4.881.873V20.182h-4.88V38.05z" id="path3005" fill="#FFF" transform="matrix(1 0 0 -1 0 60)"/></g></g></g></svg>