<svg width="80" height="10" xmlns="http://www.w3.org/2000/svg"><g id="Icons:-Payment" stroke="none" stroke-width="1" fill="none" fill-rule="evenodd"><g id="Payone-alt" transform="translate(-10 -25)"><g id="Payment/Payone/Payone-alt" transform="translate(10 25)"><path d="M4.895 8.58c0 .351.303.638.673.638h2.767c.37 0 .672-.287.672-.638V5.958c0-.35-.302-.638-.672-.638H5.568c-.37 0-.673.287-.673.638V8.58" id="Fill-1" fill="#FFF"/><path d="M.11 8.591c0 .351.302.638.673.638h2.766c.37 0 .672-.287.672-.638V5.97c0-.35-.302-.638-.672-.638H.783c-.37 0-.673.287-.673.638v2.622" id="Fill-2" fill="#FFF"/><path d="M4.895 4.044c0 .351.303.638.673.638h2.767c.37 0 .672-.287.672-.638V1.422c0-.35-.302-.637-.672-.637H5.568c-.37 0-.673.286-.673.637v2.622" id="Fill-3" fill="#2CADD8"/><path d="M.11 4.044c0 .351.302.638.673.638h2.766c.37 0 .672-.287.672-.638V1.422c0-.35-.302-.637-.672-.637H.783c-.37 0-.673.286-.673.637v2.622" id="Fill-4" fill="#FFF"/><path id="Fill-5" fill="#FFF" d="M6.26 4.637v.002-.002"/><path d="M15.555 2.171h2.369c1.716 0 1.857.474 1.857 1.001 0 .577-.21 1.167-1.765 1.167h-2.461V2.171zM17.947.783h-4.112v8.434h1.72v-3.49h2.764c2.067 0 3.252-.931 3.252-2.555 0-1.674-1.084-2.389-3.624-2.389z" id="Fill-6" fill="#FFF"/><path d="M29.671 5.76h-3.367l1.688-3.22 1.68 3.22zM27.128.782l-4.571 8.434h1.925l1.08-2.07h4.828l1.08 2.07h1.96L28.859.783h-1.73z" id="Fill-7" fill="#FFF"/><path d="M42.172.783L39.266 4.32 36.36.783h-2.22l4.266 4.964v3.47h1.72v-3.47L44.393.783h-2.22" id="Fill-8" fill="#FFF"/><path d="M50.947 8.038c-1.903 0-3.182-1.22-3.182-3.038 0-1.817 1.279-3.038 3.182-3.038 1.904 0 3.182 1.22 3.182 3.038 0 1.817-1.278 3.038-3.182 3.038zm0-7.464c-3.669 0-4.971 2.384-4.971 4.426 0 2.042 1.302 4.426 4.971 4.426 3.67 0 4.973-2.384 4.973-4.426 0-2.042-1.303-4.426-4.973-4.426z" id="Fill-9" fill="#2CADD8"/><path d="M66.831 7.084l-4.77-6.3h-2.037v8.433h1.72v-6.3l4.77 6.3h2.037V.783h-1.72v6.3" id="Fill-10" fill="#2CADD8"/><path d="M79.89 2.171V.783h-6.862v8.434h6.852V7.829h-5.131V5.584h4.739V4.196h-4.74V2.171h5.142" id="Fill-11" fill="#2CADD8"/></g></g></g></svg>