<svg width="100" height="60" xmlns="http://www.w3.org/2000/svg"><g id="Icons:-Payment" stroke="none" stroke-width="1" fill="none" fill-rule="evenodd"><g id="GoogleWallet-card-light"><g id="Payment/GoogleWallet/GoogleWallet-card-light"><rect id="Rectangle" fill="#FFF" x="0" y="0" width="100" height="60" rx="4"/><g id="Google-Wallet" transform="translate(27.526 44.532)" fill="#1476C6"><path d="M25.077 6.225a4.238 4.238 0 01-.297.17 2.094 2.094 0 01-.854.168c-.279 0-.724-.019-1.17-.356-.63-.45-.909-1.22-.909-1.894 0-1.388 1.114-2.063 2.023-2.063.316 0 .65.075.91.244.445.3.557.675.612.881l-2.079.844-.686.056c.222 1.144.983 1.8 1.819 1.8.445 0 .78-.168 1.076-.318l-.445.468zm-.836-2.662c.168-.056.26-.113.26-.244 0-.356-.39-.769-.872-.769-.353 0-1.021.281-1.021 1.238 0 .15.019.319.019.469l1.614-.694z" id="path8"/><path d="M21.643 6.413h-1.56c.205-.263.242-.3.242-.469V4.482c0-.694.019-1.688.037-2.626 0-.45.037-1.03.056-1.443h-.687l.668-.32h1.262c-.278.17-.37.207-.39.526-.074.694-.074 1.781-.074 3.056v2.063c0 .356.056.412.353.431.149.019.297.038.446.038l-.353.206" id="path10"/><path d="M18.729 2.681c.204.17.63.526.63 1.22 0 .656-.37.974-.742 1.274-.111.113-.241.244-.241.432 0 .187.13.3.223.375l.315.243c.39.338.743.638.743 1.257 0 .844-.798 1.687-2.339 1.687-1.28 0-1.912-.618-1.912-1.275 0-.318.167-.787.687-1.087.557-.338 1.3-.394 1.689-.413-.13-.169-.26-.337-.26-.6 0-.15.037-.244.093-.356-.093 0-.204.019-.278.019-.947 0-1.467-.713-1.467-1.407 0-.412.186-.862.576-1.2.5-.412 1.113-.487 1.577-.487h1.82l-.576.318h-.538zm-.631 3.976h-.205c-.074 0-.556.019-.928.15-.204.075-.76.281-.76.919 0 .637.612 1.087 1.558 1.087.854 0 1.3-.412 1.3-.975 0-.45-.297-.694-.965-1.181zm.26-1.688c.204-.206.222-.487.222-.656 0-.638-.39-1.65-1.114-1.65-.222 0-.482.112-.612.3a1.058 1.058 0 00-.204.656c0 .6.352 1.594 1.113 1.594.205 0 .446-.113.594-.244z" id="path12"/><path d="M13.253 6.544c-1.41 0-2.153-1.106-2.153-2.119 0-1.181.946-2.175 2.301-2.175 1.3 0 2.117 1.032 2.117 2.12-.02 1.05-.836 2.174-2.265 2.174m1.095-.731c.204-.281.26-.638.26-.994 0-.787-.371-2.288-1.466-2.288a1.24 1.24 0 00-.799.3c-.352.32-.408.713-.408 1.088 0 .881.427 2.344 1.504 2.344.352 0 .705-.169.91-.45" id="path14"/><path d="M8.538 6.544c-1.41 0-2.153-1.106-2.153-2.119 0-1.181.947-2.175 2.302-2.175 1.3 0 2.116 1.032 2.116 2.12-.019 1.05-.835 2.174-2.265 2.174m1.095-.731c.205-.281.26-.638.26-.994 0-.787-.37-2.288-1.466-2.288-.297 0-.594.113-.798.3-.353.32-.409.713-.409 1.088 0 .881.427 2.344 1.504 2.344.353 0 .705-.169.91-.45" id="path16"/><path d="M5.791 6.225l-1.188.282c-.482.075-.91.15-1.373.15C.928 6.657.056 4.95.056 3.619c0-1.631 1.243-3.131 3.36-3.131.445 0 .872.075 1.262.168.63.17.909.394 1.095.525l-.687.657-.297.075.204-.338c-.278-.281-.798-.787-1.782-.787C1.893.788.91 1.8.91 3.263c0 1.575 1.132 3.056 2.932 3.056.539 0 .798-.112 1.058-.206v-1.35l-1.262.075.668-.356H6.07l-.223.206c-.056.056-.074.075-.074.131 0 .075-.019.319-.019.394v1.012" id="path18"/><path d="M28.882 6.413h-.631l-.928-4.05h.5L28.586 6l.78-3.637h.63L30.813 6l.743-3.637h.482l-.91 4.05h-.63l-.798-3.6-.817 3.6" id="path20"/><path d="M34.97 3.6c0-.656-.297-.919-.947-.919-.52 0-.816.282-.89.75l-.465-.056c.093-.656.613-1.106 1.355-1.106.891 0 1.393.394 1.393 1.275v2.063c0 .356.018.6.074.787h-.464a1.719 1.719 0 01-.056-.431c-.186.281-.631.525-1.058.525-.742 0-1.318-.45-1.318-1.35 0-.825.594-1.294 1.43-1.294.408 0 .742.075.946.169V3.6zm0 .882c-.223-.113-.538-.207-.965-.207-.557 0-.965.282-.965.882 0 .618.37.937.89.937.465 0 .873-.337 1.04-.694v-.918z" id="path22"/><path d="M36.325 6.413h.5V.638h-.5v5.775z" id="path24"/><path d="M37.754 6.413h.5V.638h-.5v5.775z" id="path26"/><path d="M40.464 6.075c.483 0 .854-.3.928-1.05l.464.075c-.11.975-.668 1.426-1.392 1.426-.946 0-1.522-.713-1.522-2.157 0-1.294.483-2.081 1.467-2.081 1.04 0 1.447.862 1.447 2.044v.15h-2.45c.019 1.106.427 1.593 1.058 1.593m.91-2.006c-.019-.769-.316-1.35-.965-1.35-.631 0-.966.525-1.003 1.35h1.968" id="path28"/><path d="M43.991 6.394a1.441 1.441 0 01-.483.075c-.594 0-.78-.3-.78-.881V2.775h-.519v-.412h.52V1.05l.464-.187v1.5h.798v.412h-.798v2.738c0 .394.074.487.39.487a.878.878 0 00.408-.093v.487" id="path30"/></g><path d="M44.25 21.58c-1.967-2.737-4.696-5.137-7.796-6.806a3.142 3.142 0 00-1.54-.394 3.237 3.237 0 00-2.877 1.744c-.854 1.594-.242 3.6 1.336 4.444 4.77 2.588 7.852 7.5 8.223 13.201v-.019a3.496 3.496 0 01.334-1.837c.037-.075.093-.17.149-.263a16.04 16.04 0 002.283-8.25c0-.62-.056-1.22-.112-1.82" id="path34" fill="#1476C6"/><path d="M63.146 15.393a35.808 35.808 0 00-2.543-7.389c-.594-1.256-1.875-2.08-3.248-2.08a3.38 3.38 0 00-1.54.355 3.644 3.644 0 00-1.708 4.838A28.762 28.762 0 0156.835 23.4c0 4.276-.91 8.382-2.691 12.208-.019.056-.334.731-.334 1.519 0 .225.018.543.092.843.242 1.032.891 1.97 1.968 2.476a3.64 3.64 0 001.54.356 3.597 3.597 0 003.156-1.894c.724-1.369 1.448-3.15 2.079-5.457.204-.694.371-1.35.52-2.044.575-2.606.89-5.269.89-8.007a38.35 38.35 0 00-.909-8.006" id="path36" fill="#47AE33"/><path d="M47.944 11.586c-.056-.112-.13-.206-.204-.3a3.116 3.116 0 00-.854-.788 3.382 3.382 0 00-1.856-.562c-.557 0-.835.075-1.225.225-.408.169-.835.394-1.225.806-.39.413-.613.825-.78 1.275-.334.882-.278 2.025.279 2.963 1.188 1.931 1.893 4.144 2.153 6.413.074.6.111 1.219.111 1.819 0 2.925-.78 5.775-2.283 8.25-.056.094-.093.17-.148.263-.297.581-.39 1.238-.335 1.857a3.472 3.472 0 001.634 2.644c.241.15.52.262.78.356a3.395 3.395 0 003.917-1.519c1.892-3.132 2.987-6.694 3.229-10.35.037-.488.055-.995.055-1.482a22.76 22.76 0 00-3.248-11.87" id="path38" fill="#ED114C"/><path d="M54.125 35.607c1.8-3.826 2.71-7.932 2.71-12.208 0-1.462-.093-2.531-.167-3.225-2.357-3.806-5.773-7.22-9.782-9.694 0 0 .093.056.093.075.278.206.501.412.76.731.057.075.15.188.205.3a22.933 22.933 0 013.248 11.813c0 .507-.018.994-.055 1.482 1.707 3.281 2.635 7.013 2.635 10.932v1.181c.019-.412.112-.844.26-1.219a.374.374 0 00.093-.168" id="path40" fill="#FBBF16"/></g></g></g></svg>