<svg width="100" height="60" xmlns="http://www.w3.org/2000/svg"><g id="Icons:-Payment" stroke="none" stroke-width="1" fill="none" fill-rule="evenodd"><g id="GiroPay-card-flat" fill="#9B9B9B"><g id="Payment/GiroPay/GiroPay-card-flat"><path d="M0 4.007C0 1.794 1.8 0 3.997 0h92.006A4.003 4.003 0 01100 4.007v51.986C100 58.206 98.2 60 96.003 60H3.997A4.003 4.003 0 010 55.993V4.007zm24.685 13.03h50.63a4.649 4.649 0 014.645 4.652v16.624c0 2.567-2.08 4.65-4.645 4.65h-50.63a4.65 4.65 0 01-4.645-4.65V21.689a4.65 4.65 0 014.645-4.652zm-2.739 4.81v16.308c0 1.605 1.3 2.907 2.905 2.907h26.525V18.94H24.851a2.906 2.906 0 00-2.905 2.907zM53.27 35.876h2.237v-3.541h.025c.424.776 1.27 1.063 2.053 1.063 1.926 0 2.958-1.6 2.958-3.527 0-1.576-.982-3.291-2.773-3.291-1.018 0-1.963.413-2.412 1.327h-.025V26.73H53.27v9.145zm4.96-5.955c0 1.038-.51 1.752-1.355 1.752-.746 0-1.368-.714-1.368-1.665 0-.976.547-1.701 1.368-1.701.872 0 1.356.75 1.356 1.614zm9.882 3.327a8.077 8.077 0 01-.124-1.538v-2.427c0-1.99-1.43-2.703-3.083-2.703-.957 0-1.79.138-2.586.463l.038 1.527c.62-.35 1.342-.488 2.063-.488.807 0 1.466.238 1.48 1.126a6.49 6.49 0 00-1.045-.088c-1.193 0-3.344.238-3.344 2.227 0 1.414 1.143 2.051 2.424 2.051.92 0 1.542-.361 2.051-1.176h.025c0 .34.037.675.05 1.026h2.05zm-4.513-2.064c0-.625.596-.862 1.356-.862.335 0 .659.024.945.037 0 .763-.535 1.539-1.381 1.539-.522 0-.92-.262-.92-.714zm5.52 4.692c.46.1.92.15 1.392.15 2.052 0 2.536-1.588 3.17-3.228l2.376-6.067h-2.24l-1.33 4.253h-.024l-1.393-4.253h-2.411l2.623 6.667c-.162.576-.584.902-1.132.902a2.66 2.66 0 01-.883-.138l-.148 1.714zm-41.706-5.942c0-.888.436-1.627 1.269-1.627 1.007 0 1.429.813 1.429 1.538 0 1.002-.634 1.677-1.43 1.677-.67 0-1.268-.575-1.268-1.588zm2.835-3.203v1.176h-.024c-.474-.801-1.245-1.327-2.201-1.327-2.014 0-2.922 1.452-2.922 3.391 0 1.927 1.107 3.277 2.883 3.277.897 0 1.643-.35 2.177-1.113h.025v.35c0 1.276-.696 1.89-1.989 1.89-.933 0-1.505-.2-2.188-.538l-.112 1.777a7.48 7.48 0 002.474.413c2.611 0 3.904-.864 3.904-3.541V26.73h-2.027zm5.809-2.715h-2.238v1.652h2.238v-1.652zm-2.237 9.232h2.237V26.73H33.82v6.517zm8.468-6.593a4.81 4.81 0 00-.758-.075c-.97 0-1.529.526-1.915 1.352h-.025V26.73h-2.038v6.517h2.237v-2.751c0-1.277.586-2.04 1.63-2.04.261 0 .509 0 .757.075l.112-1.877zm3.854 5.167c-1.032 0-1.454-.863-1.454-1.826 0-.976.422-1.839 1.454-1.839 1.033 0 1.455.863 1.455 1.84 0 .962-.422 1.825-1.455 1.825zm0 1.576c2.138 0 3.767-1.25 3.767-3.402 0-2.165-1.629-3.416-3.767-3.416-2.139 0-3.767 1.251-3.767 3.416 0 2.152 1.628 3.402 3.767 3.402z" id="Rectangle"/></g></g></g></svg>