<svg width="100" height="60" xmlns="http://www.w3.org/2000/svg"><g id="Icons:-Credit-card" stroke="none" stroke-width="1" fill="none" fill-rule="evenodd"><g id="DinersClub-card-flat" fill="#9B9B9B"><g id="Credit-Card/DinersClub/DinersClub-card-flat"><path d="M0 4.007C0 1.794 1.8 0 3.997 0h92.006A4.003 4.003 0 01100 4.007v51.986C100 58.206 98.2 60 96.003 60H3.997A4.003 4.003 0 010 55.993V4.007zm19.548 31.976c0-1.207-.63-1.127-1.234-1.14v-.349c.523.025 1.06.025 1.584.025.563 0 1.328-.025 2.322-.025 3.475 0 5.368 2.32 5.368 4.697 0 1.33-.779 4.67-5.53 4.67-.684 0-1.315-.026-1.946-.026-.603 0-1.195.012-1.798.026v-.349c.805-.081 1.195-.107 1.234-1.02v-6.509zm1.315 6.294c0 1.034.739 1.154 1.396 1.154 2.9 0 3.851-2.187 3.851-4.186 0-2.51-1.61-4.321-4.2-4.321-.551 0-.805.04-1.047.053v7.3zm7.195 1.235h.254c.376 0 .644 0 .644-.444v-3.636c0-.59-.2-.671-.698-.939v-.214c.63-.19 1.383-.443 1.436-.483a.473.473 0 01.242-.069c.066 0 .094.081.094.19v5.151c0 .444.295.444.672.444h.227v.35c-.457 0-.927-.027-1.409-.027-.483 0-.966.012-1.462.026v-.349zm1.435-7.85c-.35 0-.657-.322-.657-.671 0-.336.322-.646.657-.646.349 0 .658.283.658.646a.67.67 0 01-.658.67zm2.711 3.85c0-.495-.148-.63-.778-.885v-.254c.576-.188 1.126-.363 1.771-.646.04 0 .08.027.08.135v.872c.766-.55 1.423-1.007 2.324-1.007 1.139 0 1.541.833 1.541 1.88v3.461c0 .444.297.444.672.444h.242v.35c-.471 0-.94-.027-1.423-.027-.483 0-.967.012-1.45.026v-.349h.242c.376 0 .643 0 .643-.444v-3.474c0-.766-.467-1.141-1.233-1.141-.43 0-1.114.348-1.558.645v3.97c0 .444.296.444.672.444h.241v.35c-.47 0-.94-.027-1.423-.027-.482 0-.966.012-1.448.026v-.349h.242c.375 0 .643 0 .643-.444v-3.555zm6.872.646c-.027.12-.027.321 0 .778.079 1.275.9 2.32 1.972 2.32.739 0 1.316-.402 1.812-.898l.187.188c-.617.819-1.382 1.517-2.481 1.517-2.135 0-2.564-2.068-2.564-2.926 0-2.63 1.771-3.41 2.71-3.41 1.088 0 2.256.685 2.269 2.108 0 .081 0 .161-.013.242l-.121.08h-3.771zm2.376-.43c.335 0 .374-.175.374-.337 0-.683-.415-1.233-1.167-1.233-.818 0-1.382.603-1.543 1.57h2.336zm1.838 3.784h.363c.374 0 .642 0 .642-.444v-3.77c0-.415-.496-.497-.697-.604v-.2c.98-.417 1.516-.767 1.64-.767.078 0 .118.04.118.176v1.208h.028c.335-.524.9-1.384 1.718-1.384.335 0 .764.229.764.712 0 .362-.254.686-.63.686-.417 0-.417-.324-.887-.324-.228 0-.98.31-.98 1.115v3.152c0 .444.269.444.645.444h.75v.35c-.738-.015-1.3-.027-1.877-.027-.55 0-1.114.012-1.597.026v-.349zm5.166-1.517c.175.886.71 1.639 1.692 1.639.79 0 1.086-.484 1.086-.954 0-1.584-2.925-1.073-2.925-3.234 0-.752.604-1.718 2.08-1.718.43 0 1.006.121 1.529.39l.094 1.368h-.308c-.134-.845-.603-1.328-1.463-1.328-.537 0-1.046.308-1.046.885 0 1.571 3.112 1.087 3.112 3.194 0 .885-.71 1.826-2.308 1.826-.536 0-1.168-.188-1.636-.457l-.149-1.543.242-.068zm15.97-5.073h-.335c-.256-1.568-1.37-2.2-2.872-2.2-1.545 0-3.785 1.033-3.785 4.253 0 2.712 1.933 4.659 4 4.659 1.326 0 2.43-.913 2.697-2.323l.309.08-.309 1.96c-.563.35-2.08.712-2.967.712-3.139 0-5.125-2.027-5.125-5.046 0-2.752 2.456-4.725 5.086-4.725 1.087 0 2.133.35 3.167.712l.133 1.918zm.484 6.59h.254c.377 0 .645 0 .645-.444v-7.473c0-.873-.201-.9-.712-1.047v-.215c.537-.175 1.1-.416 1.383-.578.146-.08.254-.148.294-.148.082 0 .109.082.109.19v9.271c0 .444.295.444.67.444h.228v.35c-.455 0-.925-.027-1.408-.027-.483 0-.966.012-1.463.026v-.349zm8.616-.39c0 .243.147.256.375.256.162 0 .362-.013.538-.013v.282c-.578.053-1.679.335-1.934.416l-.067-.04v-1.088c-.804.657-1.422 1.128-2.376 1.128-.725 0-1.476-.47-1.476-1.596V39.03c0-.35-.053-.685-.804-.751v-.256c.484-.013 1.555-.093 1.73-.093.15 0 .15.093.15.389v3.462c0 .403 0 1.556 1.166 1.556.456 0 1.06-.348 1.623-.817v-3.611c0-.268-.644-.416-1.126-.55v-.24c1.207-.083 1.959-.19 2.093-.19.108 0 .108.094.108.242v4.951zm2.67-4.428c.537-.455 1.262-.967 2-.967 1.557 0 2.496 1.357 2.496 2.82 0 1.757-1.289 3.516-3.209 3.516-.992 0-1.515-.323-1.865-.47l-.401.308-.281-.147c.12-.792.187-1.57.187-2.389v-5.77c0-.873-.202-.9-.712-1.047v-.215c.538-.175 1.1-.416 1.382-.578.148-.08.255-.148.296-.148.08 0 .107.082.107.19v4.897zm0 3.65c0 .51.484 1.37 1.383 1.37 1.435 0 2.039-1.41 2.039-2.605 0-1.449-1.1-2.656-2.146-2.656-.498 0-.914.322-1.276.631v3.26zm-55.67 9.571c-.353 0-.79-.03-1.153-.03-.358 0-.787.03-1.074.03h-.031v-.282h.133c.265-.007.506-.028.509-.385v-3.825c-.003-.358-.244-.38-.509-.385h-.133v-.283h.031c.287 0 .725.028 1.082.028.363 0 .8-.028 1.146-.028h.032v.283h-.134c-.265.004-.508.027-.51.385v3.825c.002.357.245.378.51.385h.134v.282h-.032zm-2.227-.25h.103c.262 0 .54-.037.54-.417v-3.825c0-.38-.278-.417-.54-.417h-.103v-.22c.285 0 .723.03 1.082.03.365 0 .802-.03 1.146-.03v.22h-.103c-.262 0-.54.036-.54.417v3.825c0 .38.278.416.54.416h.103v.22c-.35 0-.79-.028-1.154-.028-.358 0-.789.028-1.074.028v-.22zm2.196.188v-.156h-.07c-.261 0-.572-.046-.573-.449v-3.825c.001-.404.312-.45.573-.45h.07v-.155c-.337 0-.76.03-1.114.03-.347 0-.767-.028-1.05-.03v.156h.07c.26 0 .572.045.572.449v3.825c0 .403-.311.45-.572.45h-.07v.155c.283-.003.696-.03 1.042-.03.356 0 .778.028 1.122.03zm5.47.171l-.3-.01-3.706-4.13v2.927c.009.634.105.815.655.822h.157v.282h-.033c-.316 0-.63-.03-.942-.03-.327 0-.662.03-.993.03h-.032v-.282h.135c.482-.003.62-.313.626-.895v-3.075a.625.625 0 00-.633-.625h-.128v-.283h.032c.28 0 .565.028.839.028.218 0 .429-.028.675-.017l3.21 3.612v-2.685c-.005-.58-.392-.65-.605-.655h-.193v-.283h.033c.344 0 .68.028 1.022.028.297 0 .596-.028.898-.028h.032v.283h-.14c-.302.007-.611.034-.62.895v3.323c0 .255.008.51.043.732l.006.036h-.037zm-.422-1.58l.015-.014v-2.737c0-.6-.417-.687-.636-.687h-.16v-.22c.343 0 .679.03 1.022.03.299 0 .6-.03.898-.03v.22h-.109c-.307 0-.65.058-.65.927v3.323c0 .256.007.51.043.738h-.278l-3.76-4.193v3.01c0 .635.124.853.686.853h.124v.22c-.314 0-.628-.029-.942-.029-.327 0-.664.029-.993.029v-.22h.103c.503 0 .657-.343.657-.925v-3.077a.655.655 0 00-.664-.656h-.096v-.22c.277 0 .563.03.84.03.22 0 .431-.03.65-.03l3.25 3.659zm.145 1.517h.242a4.917 4.917 0 01-.039-.705v-3.323c0-.876.368-.96.682-.96h.077v-.155c-.288.002-.576.029-.866.029-.335 0-.66-.027-.99-.029v.155h.128c.225 0 .667.1.667.72l-.01 2.76-.014.014-.025.024-3.247-3.673c-.217 0-.428.029-.651.029-.268 0-.542-.027-.807-.029l-.001.155h.065c.342 0 .695.262.695.69v3.075c0 .585-.163.958-.688.96l-.07-.002v.157c.316-.003.641-.03.96-.03.305 0 .61.027.91.03v-.155h-.092c-.575-.002-.717-.253-.717-.887v-3.092l3.791 4.242zm-.145-1.516l.023-.021-.023.02zm2.233-3.293v.03c-.54.012-.529.102-.648.642l-.005.025h-.281l.003-.038c.03-.204.067-.41.089-.621a4.17 4.17 0 00.044-.615v-.032h.232l.005.023c.05.184.185.185.37.189h3.805c.204-.004.352-.006.364-.197l.003-.035.033.007.206.032-.005.033c-.029.196-.057.392-.08.588-.013.196-.013.392-.013.59v.021l-.021.009-.259.094-.002-.042c-.02-.275-.048-.672-.51-.672h-1.165v3.854c.007.55.225.589.574.596h.17v.282h-.03c-.288 0-.799-.029-1.19-.029-.439 0-.95.03-1.236.03h-.031v-.283h.17c.403-.01.564-.015.573-.581v-3.87h-1.165v-.03zm-2.25 3.278v-.003l-.006-.004.006.007zm2.25-3.278h1.198v3.9c0 .576-.203.612-.606.612h-.14v.22c.286 0 .797-.028 1.236-.028.394 0 .905.028 1.19.028v-.22h-.14c-.35 0-.605-.064-.605-.627v-3.885h1.198c.489 0 .525.432.54.701l.22-.08c0-.198 0-.394.014-.591.021-.198.05-.395.08-.592l-.175-.03c-.015.22-.197.227-.396.227h-3.766c-.198 0-.38.008-.44-.212h-.174c0 .212-.015.415-.044.62-.023.212-.06.417-.088.621h.22c.109-.532.13-.664.678-.664v-.033c-.546-.007-.608.157-.704.667h-.156c.027-.194.06-.386.082-.587.028-.195.041-.39.043-.592h.12c.066.203.253.212.425.211h3.804c.183.003.389-.008.423-.22l.11.018c-.026.187-.053.372-.075.561a8.468 8.468 0 00-.013.574l-.159.058c-.015-.272-.08-.688-.57-.69h-1.229v3.918c0 .573.284.66.638.66h.106v.155c-.289-.002-.777-.029-1.157-.029-.424 0-.916.027-1.204.029v-.154h.108c.4 0 .637-.06.637-.646v-3.933h-1.229v.033zm8.324 4.763c-.469 0-1.309-.03-1.964-.03-.658 0-1.526.03-1.943.03h-.03v-.282h.133c.264-.005.505-.028.508-.385v-3.825c-.003-.357-.244-.38-.508-.385h-.134v-.283h.031c.446 0 1.206.028 1.818.028.614 0 1.372-.028 1.87-.028h.031v.033a11.518 11.518 0 00.014 1.113l.001.027-.024.007-.257.067-.001-.037c-.043-.474-.107-.819-.859-.826h-.984v1.85h.837c.421-.005.496-.22.546-.614l.002-.029h.28v.033a16.39 16.39 0 000 1.684v.027l-.026.007-.254.05-.002-.034c-.05-.446-.054-.69-.538-.696h-.845v1.67c0 .444.383.442.86.444.879-.005 1.23-.048 1.45-.867l.008-.03.031.005.234.061-.007.03c-.094.387-.181.773-.247 1.16l-.006.025H36.1zm-3.907-.25h.103c.262 0 .54-.037.54-.417v-3.825c0-.38-.278-.417-.54-.417h-.103v-.22c.444 0 1.206.03 1.818.03.614 0 1.373-.03 1.87-.03-.014.315-.007.798.015 1.118l-.22.058c-.035-.474-.123-.853-.89-.853h-1.014v1.912h.868c.438 0 .533-.248.576-.642h.22a16.654 16.654 0 000 1.686l-.22.044c-.043-.438-.065-.722-.57-.722h-.874v1.7c0 .476.422.476.89.476.876 0 1.263-.06 1.482-.89l.204.05c-.095.387-.182.773-.248 1.16-.468 0-1.307-.027-1.963-.027-.659 0-1.527.028-1.944.028v-.22zm3.88.187c.064-.37.147-.738.236-1.106l-.143-.036c-.219.817-.643.89-1.505.884-.46 0-.92 0-.922-.507v-1.732h.908c.51-.005.561.302.598.718l.157-.033a15.47 15.47 0 010-1.63h-.157c-.042.381-.16.647-.606.643h-.9v-1.977h1.047c.76-.006.885.387.918.846l.158-.043c-.013-.205-.022-.47-.022-.714 0-.125.004-.244.008-.347-.496.002-1.237.029-1.837.029-.6 0-1.339-.027-1.786-.029v.155h.07c.26 0 .571.046.573.45v3.825c-.002.403-.312.448-.572.45h-.07v.154c.424-.001 1.268-.029 1.91-.029.645 0 1.466.028 1.937.029zm1.261-4.292c0-.532-.292-.554-.52-.554h-.13v-.22c.233 0 .686.03 1.132.03.437 0 .788-.03 1.175-.03.919 0 1.738.248 1.738 1.286 0 .657-.438 1.058-1.015 1.286l1.248 1.868c.205.309.35.396.709.438v.22c-.242 0-.475-.028-.715-.028-.227 0-.461.028-.687.028-.563-.737-1.045-1.526-1.52-2.367h-.48v1.564c0 .562.262.583.597.583h.132v.22c-.417 0-.839-.028-1.256-.028-.35 0-.694.028-1.059.028v-.22h.132c.271 0 .519-.123.519-.393V47.56zm4.337 4.355c-.245 0-.477-.03-.717-.03-.223 0-.456.03-.71.018-.561-.735-1.041-1.52-1.513-2.353H38.3v1.53c.008.55.228.545.566.553h.164v.282h-.033c-.417 0-.841-.03-1.255-.03-.35 0-.692.03-1.059.03h-.032v-.282h.164c.263-.002.484-.117.486-.362V47.56c-.006-.518-.26-.515-.486-.522h-.164v-.283h.032c.236 0 .687.028 1.133.028.435 0 .786-.028 1.175-.028.92.002 1.768.255 1.77 1.316 0 .659-.436 1.07-.999 1.3l1.226 1.838c.205.303.332.378.687.424l.027.004v.278h-.031zm-3.402-2.661h.356c.732 0 1.125-.277 1.125-1.139 0-.65-.416-1.066-1.067-1.066-.219 0-.312.023-.414.03v2.175zm0 .232h.498l.01.016c.475.839.955 1.628 1.492 2.35.222 0 .457-.029.685-.029.233 0 .458.026.685.029v-.16c-.342-.042-.503-.145-.702-.448l-1.272-1.9.036-.016c.572-.225.996-.615.996-1.257 0-1.013-.788-1.248-1.706-1.253-.385 0-.736.03-1.175.03-.43 0-.863-.028-1.102-.03v.155h.1c.228 0 .55.039.55.587v3.711c0 .293-.274.426-.55.427h-.1v.154c.351-.001.685-.029 1.028-.029.407 0 .82.028 1.224.029v-.154h-.1c-.333 0-.63-.042-.63-.619v-1.593h.032zm0-.2h-.033v-2.237l.028-.002c.1-.008.198-.028.42-.028.664 0 1.097.432 1.098 1.098-.002.872-.42 1.168-1.157 1.168h-.357zm.356-.063c.723-.007 1.088-.258 1.095-1.106-.005-.638-.4-1.034-1.037-1.037-.197 0-.29.019-.383.028v2.115h.325zm8.426 2.801l-.3-.01-3.706-4.13v2.926c.009.636.105.816.655.823h.155v.282h-.032c-.315 0-.629-.03-.942-.03-.326 0-.663.03-.992.03h-.033v-.282h.135c.482-.002.62-.313.625-.896v-3.075c0-.39-.32-.624-.632-.624h-.128v-.283h.033c.279 0 .565.028.84.028.215 0 .426-.028.671-.019l3.21 3.614v-2.685c-.002-.58-.39-.652-.603-.655h-.192v-.283h.031c.345 0 .682.028 1.023.028.298 0 .597-.028.898-.028h.032v.283h-.14c-.302.007-.612.034-.62.895v3.323c0 .255.007.508.044.732l.004.036h-.036zm-.422-1.58l.012-.014v-2.737c0-.6-.415-.687-.634-.687h-.16v-.22c.344 0 .678.03 1.022.03.3 0 .598-.03.9-.03v.22h-.11c-.308 0-.65.058-.65.927v3.323c0 .256.007.51.043.738h-.277l-3.76-4.193v3.01c0 .635.123.853.685.853h.125v.22c-.314 0-.629-.029-.942-.029-.33 0-.665.029-.994.029v-.22h.102c.504 0 .658-.343.658-.925v-3.077a.655.655 0 00-.665-.656h-.095v-.22c.277 0 .564.03.84.03.218 0 .43-.03.65-.03l3.25 3.659zm.146 1.517h.24a4.987 4.987 0 01-.04-.705v-3.323c.001-.876.37-.958.683-.96h.077v-.155c-.287.002-.576.029-.866.029-.335 0-.66-.027-.99-.029v.155h.128c.225.002.668.1.668.72l-.011 2.76-.013.014-.023.024-3.25-3.673c-.216 0-.428.029-.649.029-.27 0-.543-.027-.809-.029v.155h.064c.344.002.695.261.695.689v3.075c0 .586-.165.959-.688.96h-.07v.155c.315-.002.64-.029.96-.029.307 0 .61.027.912.03v-.155H43.7c-.574 0-.718-.252-.72-.888v-3.09l3.795 4.24zm-.147-1.516l.024-.021-.024.02zm-.018-.015v-.002l-.005-.005.005.007zm2.332.41c-.073.247-.162.439-.162.569 0 .22.308.256.548.256h.082v.219a16.583 16.583 0 00-.885-.028c-.263 0-.525.012-.788.028v-.22h.044c.284 0 .526-.168.635-.475l1.168-3.35c.095-.271.227-.636.271-.907.233-.08.526-.225.664-.314.023-.007.036-.014.058-.014.023 0 .036 0 .052.023.022.057.043.123.066.181l1.344 3.82c.087.255.174.525.268.745.089.205.242.292.484.292h.044v.219a20.754 20.754 0 00-1.008-.028c-.358 0-.724.012-1.096.028v-.22h.08c.167 0 .454-.028.454-.211 0-.094-.066-.292-.148-.526l-.284-.847h-1.658l-.233.76zm3.89 1.075c-.328-.014-.657-.03-1.005-.03-.358 0-.722.016-1.095.03l-.033.002v-.286h.112c.17 0 .42-.037.421-.178.002-.083-.064-.283-.144-.516l-.278-.826h-1.611l-.227.738c-.074.248-.162.441-.161.56.002.179.275.222.517.222h.113v.286l-.034-.002c-.292-.014-.59-.03-.882-.03-.26 0-.524.016-.786.03l-.034.002v-.286h.076c.271 0 .498-.155.604-.452l1.17-3.351c.093-.27.226-.634.29-.926a3.76 3.76 0 00.662-.313c.02-.007.04-.017.07-.017a.09.09 0 01.081.042c.02.06.044.126.066.184l1.345 3.82c.086.255.173.525.269.741.084.195.218.272.453.272h.074v.286l-.033-.002zm-2.824-4.31h-.015l-.678 2.066h1.364l-.67-2.066zm.755 4.245c.36-.013.716-.027 1.064-.027.339 0 .657.014.975.027v-.153h-.011c-.25.002-.423-.096-.512-.312-.095-.22-.184-.492-.27-.747l-1.345-3.82c-.022-.058-.043-.123-.062-.175-.007-.007-.005-.007-.011-.007h-.014c-.015 0-.023.004-.042.009-.14.091-.433.235-.65.292-.045.277-.177.641-.271.912L48.445 51.2c-.11.317-.368.498-.664.497h-.012v.153c.25-.013.503-.027.756-.027.283 0 .57.014.85.027v-.153h-.047c-.238-.003-.57-.029-.579-.288 0-.145.09-.331.162-.578l.03.009-.03-.01.24-.78h1.703l.293.867c.082.235.148.43.148.536-.01.224-.318.24-.484.244h-.048v.153zm-1.493-2.147l.699-2.13h.04v.032l-.008.002.007-.002v-.033h.022l.694 2.13H49.27zm.087-.064h1.279L50 47.682l-.643 1.957zm3.799-2.487v.03c-.542.01-.53.102-.65.642l-.004.025h-.282l.004-.037c.03-.205.067-.41.088-.62.03-.205.043-.407.043-.617v-.032h.232l.006.023c.051.184.184.185.371.189h3.806c.202-.004.35-.006.362-.197l.002-.035.034.007.207.032-.005.033c-.03.196-.058.392-.08.588-.015.196-.015.392-.015.59v.021l-.021.009-.259.094v-.042c-.02-.275-.049-.672-.51-.672h-1.166v3.854c.007.55.226.589.574.596h.17v.282h-.03c-.287 0-.8-.029-1.192-.029-.436 0-.947.03-1.233.03h-.033v-.283h.171c.403-.01.565-.015.574-.581v-3.87h-1.164v-.03zm-3.18.462l.017-.005-.016.005zm3.18-.462h1.197v3.9c0 .576-.204.612-.607.612h-.139v.22c.285 0 .798-.028 1.235-.028.395 0 .905.028 1.19.028v-.22h-.139c-.35 0-.606-.064-.606-.627v-3.885h1.198c.49 0 .527.432.54.701l.218-.08c0-.198 0-.394.016-.591.023-.198.052-.395.079-.592l-.175-.03c-.014.22-.197.227-.393.227h-3.768c-.198 0-.38.008-.438-.212h-.176c0 .212-.014.415-.043.62-.023.212-.06.417-.089.621h.22c.11-.532.132-.664.68-.664v-.033c-.548-.008-.61.157-.707.667h-.157c.028-.192.063-.386.083-.587.029-.195.043-.39.045-.593h.12c.066.204.252.214.424.212h3.806c.182.004.388-.008.421-.22l.11.019c-.026.186-.054.373-.073.56a7.34 7.34 0 00-.016.574l-.159.058c-.014-.272-.078-.688-.568-.69h-1.23v3.918c.001.574.286.659.638.66H56v.156c-.288-.003-.777-.03-1.159-.03-.423 0-.913.027-1.202.03v-.156h.107c.402-.001.638-.059.638-.645v-3.933h-1.228v.033zm6.68 4.763c-.353 0-.79-.03-1.154-.03-.357 0-.789.03-1.074.03h-.031v-.282h.134c.263-.005.506-.028.507-.385v-3.825c-.001-.357-.244-.38-.507-.385h-.134v-.283h.031c.285 0 .725.028 1.08.028.364 0 .802-.028 1.148-.028h.03v.283h-.132c-.267.004-.508.028-.51.385v3.825c.002.357.243.38.51.385h.132v.282h-.03zm-2.228-.25h.102c.264 0 .54-.037.54-.417v-3.825c0-.38-.276-.417-.54-.417h-.102v-.22c.285 0 .722.03 1.08.03.366 0 .804-.03 1.148-.03v.22h-.102c-.264 0-.542.036-.542.417v3.825c0 .38.278.416.542.416h.102v.22c-.35 0-.79-.028-1.154-.028-.358 0-.789.028-1.074.028v-.22zm2.195.187v-.155h-.07c-.261 0-.571-.046-.571-.449v-3.825c0-.404.31-.45.572-.45h.069v-.155c-.337.002-.76.029-1.115.029-.347 0-.765-.027-1.048-.029v.155h.07c.26 0 .571.046.572.45v3.825c0 .403-.312.45-.571.45h-.071v.154c.281-.003.694-.029 1.042-.029.354 0 .776.027 1.12.029zm2.945-5.175c1.557 0 2.797.965 2.797 2.52 0 1.68-1.205 2.797-2.76 2.797-1.548 0-2.73-1.052-2.73-2.622 0-1.519 1.174-2.695 2.693-2.695zm.11 4.995c1.417 0 1.664-1.25 1.664-2.314 0-1.068-.575-2.36-1.788-2.36-1.278 0-1.658 1.14-1.658 2.118 0 1.306.6 2.556 1.782 2.556zm-2.836-2.3c.003-1.536 1.191-2.724 2.725-2.727v.064c-1.5 0-2.662 1.16-2.664 2.663.003 1.552 1.169 2.588 2.703 2.589 1.539 0 2.726-1.101 2.728-2.765-.001-1.536-1.222-2.485-2.767-2.487v-.064c1.568.002 2.827.976 2.83 2.551-.002 1.697-1.222 2.825-2.791 2.828-1.562-.003-2.761-1.065-2.764-2.652zm1.022-.256c.002-.983.386-2.15 1.69-2.15 1.24.003 1.818 1.319 1.82 2.392-.002 1.064-.253 2.344-1.696 2.344v-.062c1.389-.001 1.63-1.218 1.632-2.282 0-1.058-.57-2.326-1.756-2.328-1.253.002-1.623 1.113-1.626 2.086 0 1.3.594 2.522 1.75 2.524v.062c-1.212-.001-1.812-1.272-1.814-2.586zm9.847 2.908l-.303-.01-3.705-4.13v2.927c.008.635.105.814.653.82h.157v.284h-.03c-.317 0-.63-.03-.943-.03-.327 0-.663.03-.994.03h-.03v-.284h.133c.481 0 .62-.311.626-.893v-3.076c0-.39-.32-.624-.634-.624h-.125v-.283h.03c.28 0 .565.028.84.028.217 0 .427-.028.675-.017l3.208 3.612v-2.685c-.002-.58-.391-.65-.604-.655h-.193v-.283h.034c.343 0 .68.028 1.02.028.299 0 .597-.028.9-.028h.03v.283h-.14c-.301.007-.612.035-.618.895v3.323c0 .255.006.51.041.732l.007.036h-.035zm-.425-1.58l.015-.014v-2.737c0-.6-.417-.687-.636-.687h-.16v-.22c.343 0 .68.03 1.022.03.3 0 .6-.03.899-.03v.22h-.11c-.306 0-.65.058-.65.927v3.323c0 .256.007.51.044.738h-.278l-3.76-4.193v3.01c0 .635.124.853.685.853h.125v.22c-.314 0-.628-.029-.942-.029-.329 0-.665.029-.993.029v-.22h.102c.505 0 .657-.343.657-.925v-3.077a.654.654 0 00-.665-.656h-.094v-.22c.277 0 .562.03.84.03.218 0 .429-.03.649-.03l3.25 3.659zm.146 1.517h.24a5.17 5.17 0 01-.038-.705v-3.323c0-.878.368-.958.682-.96h.079v-.155c-.29.002-.577.029-.87.029-.332 0-.658-.027-.989-.029v.155h.129c.225.002.666.102.666.72l-.008 2.76-.014.014-.023.024-3.25-3.673c-.216 0-.428.029-.65.029-.269 0-.543-.027-.809-.029v.155h.064c.344.002.696.261.696.689v3.076c0 .585-.163.958-.688.96h-.072v.154c.317-.002.642-.029.963-.029.305 0 .608.027.91.03v-.155h-.094c-.573 0-.717-.252-.717-.887v-3.092l3.793 4.242zm-.146-1.516l.023-.021-.023.02zm-.017-.015v-.002l-.006-.005.006.007zm2.33.41c-.072.247-.16.439-.16.569 0 .22.308.256.547.256h.082v.219a16.58 16.58 0 00-.885-.028c-.263 0-.525.012-.787.028v-.22h.042c.286 0 .528-.168.634-.475l1.171-3.35c.095-.271.227-.636.269-.907a3.73 3.73 0 00.666-.314c.02-.007.035-.014.058-.014.021 0 .035 0 .05.023.022.057.044.123.066.181l1.344 3.82c.087.255.175.525.27.745.088.205.241.292.482.292h.045v.219c-.33-.016-.658-.028-1.009-.028-.357 0-.723.012-1.096.028v-.22h.081c.167 0 .454-.028.454-.211 0-.094-.066-.292-.147-.526l-.285-.847h-1.657l-.235.76zm3.89 1.075c-.328-.013-.656-.03-1.005-.03-.356 0-.722.017-1.094.03l-.032.002v-.284h.11c.17 0 .422-.04.422-.18.002-.083-.064-.283-.146-.516l-.277-.826h-1.612l-.225.738c-.074.25-.16.441-.16.56 0 .179.275.224.516.224h.112v.284l-.033-.002c-.292-.013-.591-.03-.882-.03-.261 0-.524.017-.787.03l-.032.002v-.284h.074c.272-.002.5-.157.607-.454l1.167-3.351c.094-.27.226-.634.29-.925.23-.08.523-.226.665-.314.019-.007.039-.016.069-.016a.082.082 0 01.08.043c.022.057.043.124.067.182l1.343 3.82c.088.255.175.525.27.743.085.193.218.27.451.272h.076v.284l-.033-.002zm-2.822-4.31h-.015l-.68 2.066h1.367l-.672-2.066zm.753 4.246c.361-.014.716-.028 1.064-.028.34 0 .657.014.976.027v-.153h-.013c-.247 0-.42-.096-.51-.312-.097-.22-.184-.492-.271-.746l-1.344-3.82a7.224 7.224 0 01-.062-.175c-.006-.008-.005-.008-.01-.008h-.014c-.016 0-.024.005-.041.01a2.79 2.79 0 01-.651.29c-.045.278-.178.642-.272.913l-1.17 3.351c-.11.317-.366.498-.664.497h-.011v.153c.251-.013.502-.027.756-.027.283 0 .572.014.852.027v-.153h-.049c-.237-.003-.57-.028-.58-.288.002-.145.092-.33.164-.578l.029.009-.03-.01.24-.78h1.703l.293.867c.08.235.147.43.147.536-.01.224-.317.24-.483.244h-.05v.154zm-1.492-2.148l.7-2.13h.039v.032l-.009.002.009-.002v-.033h.022l.69 2.13h-1.451zm.088-.064h1.277l-.635-1.956-.642 1.956zm.62-2.025l.015-.005-.015.005zm6.966 4.301c-.644 0-1.287-.03-1.927-.03-.643 0-1.285.03-1.93.03h-.03v-.282h.133c.264-.007.515-.025.518-.457V47.42c-.003-.355-.253-.379-.518-.383h-.133v-.283h.03c.39 0 .77.028 1.155.028.371 0 .735-.028 1.111-.028h.03v.283h-.213c-.284.007-.46-.006-.466.362v3.768c.002.273.18.346.41.378a5.923 5.923 0 00.957-.014c.297-.036.553-.208.68-.382.112-.156.176-.356.22-.515l.006-.024h.276l-.007.038c-.082.418-.183.825-.271 1.241l-.006.025h-.025zm-2.27-.747c0 .293.203.38.438.41.298.022.627.022.964-.015.307-.037.57-.211.7-.395.116-.16.182-.365.227-.526h.211c-.08.417-.182.826-.27 1.242-.641 0-1.286-.028-1.927-.028-.643 0-1.286.028-1.928.028v-.22h.101c.264 0 .55-.036.55-.488v-3.753c0-.38-.286-.417-.55-.417h-.1v-.22c.385 0 .766.03 1.152.03.373 0 .738-.03 1.111-.03v.22h-.183c-.278 0-.496.007-.496.394v3.768zm2.244.684c.084-.397.18-.784.259-1.178h-.151c-.045.159-.11.355-.224.514a1.085 1.085 0 01-.724.406 5.606 5.606 0 01-.97.014c-.238-.026-.468-.128-.468-.44V47.4c0-.406.257-.427.53-.427h.15v-.155c-.36.002-.715.03-1.078.03-.378 0-.748-.028-1.121-.03v.155h.07c.26 0 .578.046.578.448v3.755c0 .472-.317.521-.579.521h-.07v.155c.631-.001 1.263-.029 1.897-.029.635 0 1.268.028 1.9.029zm.207-5.272c.44 0 .77.338.77.77a.753.753 0 01-.77.767.753.753 0 01-.768-.767c0-.432.329-.77.768-.77zm0 1.394a.62.62 0 00.609-.624.62.62 0 00-.609-.626.621.621 0 00-.609.626c0 .33.263.624.61.624zm-.382-.218v-.038c.094-.013.112-.01.112-.068v-.57c0-.08-.008-.108-.109-.104v-.039h.394c.135 0 .26.065.26.205 0 .114-.076.199-.182.232l.126.176c.059.08.126.155.17.181v.025h-.15c-.072 0-.136-.151-.277-.354h-.085v.255c0 .05.018.048.112.061v.038h-.371zm.26-.406h.09c.1 0 .145-.075.145-.196 0-.122-.07-.166-.15-.166h-.086v.362zM47.72 8.64c6.83 0 12.367 5.536 12.367 12.367 0 6.83-5.537 12.367-12.367 12.367-6.83 0-12.367-5.537-12.367-12.367 0-6.83 5.537-12.368 12.367-12.368zm7.48 12.123a7.44 7.44 0 00-4.775-6.938V27.7a7.44 7.44 0 004.774-6.937zm-10.096 6.935V13.827a7.447 7.447 0 00-4.771 6.936 7.444 7.444 0 004.77 6.935zm-10.288-6.801c0-7.639 5.834-12.923 12.921-12.921h3.321c7.004-.002 13.396 5.28 13.396 12.92 0 6.988-6.392 12.699-13.396 12.699h-3.32c-7.088.033-12.922-5.709-12.922-12.698z" id="Rectangle"/></g></g></g></svg>