<svg width="100" height="60" xmlns="http://www.w3.org/2000/svg"><g id="Icons:-Payment" stroke="none" stroke-width="1" fill="none" fill-rule="evenodd"><g id="Shopify-card-flat" fill="#9B9B9B"><g id="Payment/Shopify/Shopify-card-flat"><path d="M0 4.007C0 1.794 1.8 0 3.997 0h92.006A4.003 4.003 0 01100 4.007v51.986C100 58.206 98.2 60 96.003 60H3.997A4.003 4.003 0 010 55.993V4.007zm20.698 15.777a.61.61 0 01.35.12c-.874.415-1.81 1.463-2.204 3.556l-1.664.522c.463-1.596 1.562-4.198 3.518-4.198zm.81.776c.167.425.275 1.035.275 1.859v.12l-2.105.66c.405-1.585 1.165-2.35 1.83-2.64zm2.008 1.435l-1.019.32v-.223c0-.683-.093-1.232-.243-1.668.603.077 1.004.772 1.262 1.57zm3.003.908l-1.247-1.255 1.247 1.255zm-8.83-1.916c-.718 1.082-1.145 2.382-1.349 3.259l-1.906.599c-.59.188-.61.207-.687.77-.058.427-1.604 12.538-1.604 12.538l12.044 2.286 6.526-1.43-2.306-15.8 1.158 7.94 1.148 7.86-6.526 1.43.456-9.436-.456 9.436 6.526-1.43-2.306-15.8a.205.205 0 00-.184-.173l-1.682-.127-.018-.002-.579-.582-.672-.677c-.124-.125-.365-.087-.46-.06l-.63.198c-.377-1.098-1.041-2.107-2.21-2.107-.033 0-.066.002-.1.004-.332-.446-.744-.64-1.1-.64-1.361 0-2.367.863-3.084 1.944zm10.65 2.098a.212.212 0 00-.116-.05l-1.682-.126-.018-.002s1.623.122 1.7.129c.038.003.08.02.115.049zm-6.367 3.604l-.805 2.425s-.705-.381-1.57-.381c-1.266 0-1.33.805-1.33 1.008 0 1.108 2.85 1.532 2.85 4.127 0 2.04-1.278 3.355-3 3.355-2.068 0-3.126-1.304-3.126-1.304l.554-1.853s1.087.946 2.004.946c.599 0 .843-.478.843-.828 0-1.444-2.338-1.509-2.338-3.883 0-1.998 1.415-3.932 4.273-3.932 1.1 0 1.645.32 1.645.32zm16.348 4.546c-.65-.358-.986-.66-.986-1.074 0-.527.465-.866 1.19-.866.845 0 1.6.358 1.6.358l.595-1.847s-.547-.433-2.157-.433c-2.241 0-3.794 1.3-3.794 3.127 0 1.037.725 1.828 1.692 2.393.782.452 1.06.772 1.06 1.244 0 .49-.39.885-1.115.885-1.08 0-2.102-.565-2.102-.565l-.632 1.846s.943.64 2.53.64c2.305 0 3.96-1.149 3.96-3.221 0-1.112-.837-1.903-1.841-2.487zm9.186-3.88c-1.134 0-2.027.546-2.715 1.375l-.037-.02.985-5.218h-2.566l-2.491 13.282h2.566l.855-4.54c.335-1.715 1.209-2.77 2.027-2.77.576 0 .8.396.8.961 0 .358-.038.791-.112 1.15l-.967 5.199h2.566l1.004-5.37a9.825 9.825 0 00.186-1.695c0-1.47-.762-2.355-2.101-2.355zm6.638 7.61c-.874 0-1.245-.753-1.245-1.695 0-1.489.762-3.919 2.157-3.919.91 0 1.208.791 1.208 1.564 0 1.601-.762 4.05-2.12 4.05zm1.265-7.61c-3.087 0-5.132 2.825-5.132 5.971 0 2.016 1.227 3.636 3.533 3.636 3.03 0 5.076-2.75 5.076-5.972 0-1.865-1.079-3.636-3.477-3.636zm7.587 7.648c-.667 0-1.06-.377-1.06-.377l.427-2.43c.298-1.62 1.135-2.694 2.027-2.694.781 0 1.023.735 1.023 1.432 0 1.676-.986 4.069-2.417 4.069zm2.454-7.649c-1.732 0-2.715 1.545-2.715 1.545h-.037l.149-1.394h-2.269a56.064 56.064 0 01-.52 3.448l-1.786 9.514h2.567l.706-3.844h.056s.527.34 1.506.34c3.013 0 4.984-3.128 4.984-6.293 0-1.752-.763-3.316-2.64-3.316zm6.304-3.73c-.818 0-1.469.66-1.469 1.507 0 .773.484 1.3 1.209 1.3h.037c.8 0 1.487-.546 1.506-1.507 0-.754-.502-1.3-1.283-1.3zm-3.589 13.15h2.566l1.748-9.213h-2.584l-1.73 9.213zm10.84-9.231h-1.784l.093-.434c.148-.885.67-1.676 1.525-1.676.456 0 .818.131.818.131l.502-2.034s-.447-.226-1.395-.226c-.911 0-1.822.264-2.51.866-.874.754-1.283 1.847-1.488 2.94l-.074.433h-1.19l-.372 1.959h1.19l-1.357 7.272h2.566l1.357-7.272h1.767l.353-1.96zm6.174.018s-1.604 4.095-2.324 6.33h-.037c-.05-.719-.632-6.33-.632-6.33h-2.697l1.544 8.46c.037.188.018.3-.056.433-.298.584-.8 1.149-1.395 1.563-.483.358-1.022.584-1.45.735l.707 2.204c.52-.113 1.599-.546 2.51-1.413 1.171-1.111 2.25-2.826 3.366-5.162l3.142-6.82h-2.678z" id="Rectangle"/></g></g></g></svg>