<svg width="61" height="20" xmlns="http://www.w3.org/2000/svg"><g id="Icons:-Credit-card" stroke="none" stroke-width="1" fill="none" fill-rule="evenodd"><g id="Visa-flat" transform="translate(-20 -20)" fill="#9B9B9B"><g id="Credit-Card/Visa/Visa-flat" transform="translate(20 20)"><path d="M21.49 19.547L24.565.473h4.915l-3.075 19.074H21.49" id="Fill-1"/><path d="M44.233.94c-.972-.382-2.5-.8-4.404-.8-4.86 0-8.28 2.589-8.308 6.295-.031 2.742 2.44 4.271 4.304 5.182 1.915.935 2.559 1.532 2.551 2.368-.013 1.277-1.529 1.862-2.942 1.862-1.967 0-3.013-.288-4.63-1l-.631-.304-.688 4.27c1.146.531 3.27.992 5.476 1.017 5.164 0 8.52-2.558 8.559-6.516.018-2.174-1.292-3.822-4.128-5.182-1.718-.885-2.772-1.47-2.76-2.366.001-.792.89-1.641 2.816-1.641a8.62 8.62 0 013.678.733l.441.218.666-4.135" id="Fill-2"/><path d="M50.777 12.784c.408-1.096 1.958-5.331 1.958-5.331-.028.05.405-1.105.653-1.82l.332 1.645s.943 4.553 1.138 5.506h-4.08zM56.841.492h-3.799c-1.178 0-2.06.338-2.576 1.581l-7.299 17.48h5.163s.842-2.351 1.033-2.867c.563 0 5.58.01 6.295.01.147.665.599 2.858.599 2.858h4.561L56.841.492z" id="Fill-3"/><path d="M12.04 10.85l.516 2.643L17.366.489h5.21l-7.74 19.038-5.202.003L5.263 2.963C3.752 2.077 2.028 1.365.1.871L.165.476H8.09c1.067.042 1.93.4 2.228 1.61l1.722 8.763z" id="Fill-4"/></g></g></g></svg>