<svg width="73" height="23" xmlns="http://www.w3.org/2000/svg"><g id="Icons:-Payment" stroke="none" stroke-width="1" fill="none" fill-rule="evenodd"><g id="Amazon" transform="translate(-13 -18)"><g id="Payment/Amazon/Amazon" transform="translate(13 18)"><path d="M45.22 17.658c-4.18 3.08-10.241 4.723-15.459 4.723-7.316 0-13.902-2.704-18.885-7.201-.391-.354-.04-.836.43-.56 5.377 3.126 12.026 5.007 18.894 5.007 4.632 0 9.727-.958 14.413-2.945.707-.3 1.3.463.607.976" id="path8" fill="#F90"/><path d="M46.958 15.671c-.532-.682-3.532-.322-4.88-.163-.41.05-.472-.306-.102-.563 2.39-1.68 6.31-1.195 6.767-.632.458.566-.119 4.494-2.364 6.368-.345.288-.673.135-.52-.247.504-1.258 1.635-4.078 1.1-4.763" id="path10" fill="#F90"/><path d="M42.173 3.081V1.448c0-.248.188-.413.413-.413h7.32c.234 0 .422.169.422.413v1.398c-.003.235-.2.542-.551 1.027l-3.793 5.41c1.41-.034 2.897.176 4.175.896.288.163.366.4.388.635v1.743c0 .238-.263.517-.538.373-2.252-1.18-5.243-1.308-7.733.012-.254.138-.52-.137-.52-.375V10.91c0-.266.003-.72.27-1.123L46.42 3.49h-3.824c-.235 0-.423-.166-.423-.41" id="path12" fill="#221F1F"/><path d="M15.474 13.274h-2.227a.42.42 0 01-.398-.379V1.475c0-.228.191-.41.43-.41h2.076a.42.42 0 01.404.383V2.94h.04c.542-1.442 1.56-2.115 2.932-2.115 1.394 0 2.264.673 2.89 2.115.54-1.442 1.764-2.115 3.076-2.115.933 0 1.954.385 2.578 1.249.704.96.56 2.356.56 3.58l-.003 7.207a.42.42 0 01-.429.413H25.18a.423.423 0 01-.4-.413V6.808c0-.482.043-1.683-.063-2.14-.166-.767-.664-.983-1.31-.983-.538 0-1.102.36-1.33.936-.229.576-.207 1.54-.207 2.187v6.053a.42.42 0 01-.429.413h-2.224a.42.42 0 01-.4-.413l-.004-6.053c0-1.273.21-3.148-1.371-3.148-1.6 0-1.538 1.828-1.538 3.148v6.053a.42.42 0 01-.43.413" id="path14" fill="#221F1F"/><path d="M56.63.825c3.303 0 5.092 2.835 5.092 6.44 0 3.483-1.976 6.247-5.093 6.247-3.244 0-5.01-2.836-5.01-6.369 0-3.555 1.788-6.318 5.01-6.318m.02 2.331c-1.642 0-1.745 2.235-1.745 3.627 0 1.396-.022 4.375 1.725 4.375 1.726 0 1.807-2.403 1.807-3.868 0-.964-.04-2.115-.332-3.029-.25-.795-.748-1.105-1.456-1.105" id="path16" fill="#221F1F"/><path d="M66.006 13.274H63.79a.423.423 0 01-.401-.413l-.003-11.423a.421.421 0 01.429-.372h2.064c.194.01.354.14.397.319v1.746h.041C66.94 1.57 67.813.825 69.351.825c.999 0 1.973.36 2.6 1.346.582.913.582 2.45.582 3.555v7.188c-.025.2-.21.36-.43.36h-2.232a.422.422 0 01-.395-.36V6.711c0-1.248.144-3.076-1.393-3.076-.542 0-1.04.363-1.288.914-.313.698-.354 1.393-.354 2.162v6.15a.428.428 0 01-.435.413" id="path18" fill="#221F1F"/><path d="M36.338 7.82c0 .866.022 1.589-.416 2.359-.354.626-.918 1.01-1.541 1.01-.855 0-1.356-.65-1.356-1.611 0-1.896 1.7-2.24 3.313-2.24v.481m2.246 5.424a.465.465 0 01-.526.053c-.74-.614-.874-.898-1.278-1.484-1.222 1.246-2.09 1.618-3.67 1.618-1.877 0-3.333-1.154-3.333-3.467 0-1.806.977-3.036 2.374-3.637 1.209-.532 2.897-.625 4.187-.773v-.287c0-.53.04-1.155-.272-1.612-.27-.41-.79-.58-1.25-.58-.849 0-1.603.436-1.788 1.337-.038.2-.185.398-.388.407l-2.158-.232c-.182-.04-.386-.187-.332-.466.495-2.616 2.862-3.405 4.98-3.405 1.083 0 2.499.288 3.354 1.108 1.083 1.011.98 2.36.98 3.828v3.467c0 1.042.432 1.499.84 2.062.14.2.171.442-.01.592a94.47 94.47 0 00-1.707 1.477l-.003-.006" id="path28" fill="#221F1F"/><path d="M7.146 7.82c0 .866.022 1.589-.416 2.359-.354.626-.915 1.01-1.541 1.01-.855 0-1.353-.65-1.353-1.611 0-1.896 1.7-2.24 3.31-2.24v.481m2.246 5.424a.465.465 0 01-.526.053c-.74-.614-.87-.898-1.278-1.484-1.221 1.246-2.086 1.618-3.67 1.618-1.873 0-3.333-1.154-3.333-3.467 0-1.806.98-3.036 2.374-3.637 1.209-.532 2.897-.625 4.187-.773v-.287c0-.53.041-1.155-.269-1.612-.272-.41-.792-.58-1.25-.58-.848 0-1.606.436-1.791 1.337-.038.2-.185.398-.385.407L1.29 4.586C1.108 4.546.908 4.4.958 4.12 1.456 1.504 3.82.715 5.938.715c1.083 0 2.499.288 3.354 1.108 1.083 1.011.98 2.36.98 3.828v3.467c0 1.042.432 1.499.84 2.062.143.2.175.442-.007.592a94.478 94.478 0 00-1.707 1.477l-.006-.006" id="path30" fill="#221F1F"/></g></g></g></svg>