<svg width="76" height="26" xmlns="http://www.w3.org/2000/svg"><g id="Icons:-Payment" stroke="none" stroke-width="1" fill="none" fill-rule="evenodd"><g id="DirectDebit-flat" transform="translate(-12 -17)" fill="#9B9B9B"><g id="Payment/DirectDebit/DirectDebit-flat" transform="translate(12 17)"><path d="M35.791 5.963h3.875s3.836-.077 3.798 3.421c-.04 2.605-3.72 2.994-3.72 2.994H35.79V5.963zm11.592 12.558c.109.51.475 1.07 1.699 1.127 1.627.039 2.558-.584 2.558-.584v1.206s-1.783.427-2.636.427c-.89 0-3.526-.194-3.526-2.643 0-1.983 2.17-2.605 3.41-2.605 2.17.078 3.216.855 3.177 3.071 0 .033-3.57.009-4.682.001zm.005-.973h2.972s0-1.127-1.433-1.127c-1.079 0-1.432.583-1.54 1.127zm9.405-1.217c.43-.468 1.152-.843 2.364-.843 2.402 0 2.79 2.021 2.75 2.566-.038.544-.232 2.605-3.022 2.605-1.053 0-1.698-.361-2.092-.81v.654h-1.899v-6.998h1.899v2.826zm1.627 3.24c1.124-.04 1.628-1.012 1.628-1.478 0-.467-.272-1.439-1.705-1.439-1.113 0-1.451.843-1.55 1.256v.507c.097.42.438 1.153 1.627 1.153zm16.391-.195l.039 1.088s-.892.195-1.473.195c-.58 0-2.092-.35-2.092-1.827v-2.256h-1.589v-1.01h1.589V14.36h1.937v1.205h1.589v1.01h-1.589v1.944s0 .972.775.972.814-.116.814-.116zm-5.89-12.363h2.247v5.404h1.9V7.013h2.285V5.886h-6.432v1.127zm-.775.272l.233-1.127s-.97-.428-2.674-.428c-1.666 0-4.34.933-4.34 3.46 0 2.488 2.829 3.343 4.572 3.343 1.744 0 2.325-.272 2.325-.272l-.193-1.244s-.776.233-2.093.233c-1.279-.038-2.596-1.05-2.596-2.177.039-1.01 1.201-2.138 2.713-2.138 1.162 0 2.053.35 2.053.35zM51.02 5.925s3.178-.156 3.178 1.71c0 1.594-1.821 1.71-1.821 1.71s.503.078.736.428c.193.311 1.472 2.644 1.472 2.644h-1.937s-.31-.39-.465-.661c-.117-.272-.465-.855-.465-.855s-.271-.972-1.201-.972l-.698-.026v2.514h-1.86V5.924h3.061zM49.818 8.84h1.007s1.396-.078 1.473-.933c.039-.817-1.356-.933-1.356-.933h-1.124V8.84zm7.789 1.01h3.1V8.647h-3.1V7.168h3.37V5.924h-5.27v6.493h5.31V11.25h-3.41v-1.4zm7.556 4.977h1.898v-1.322h-1.898v1.322zm0 5.676h1.898v-4.937h-1.898v4.937zM44.47 12.417h1.86V5.924h-1.86v6.493zm-8.68 1.632h3.875s3.836-.077 3.798 3.422c-.04 2.604-3.72 2.993-3.72 2.993H35.79V14.05zm1.899 5.21h1.24s2.557-.155 2.557-2.138c0-1.983-2.712-2.177-2.712-2.177H37.69v4.315zm0-8.086h1.24s2.557-.195 2.557-2.139c0-2.021-2.712-2.176-2.712-2.176H37.69v4.315z" id="Fill-2"/><path d="M18.393 9.828v13.008s-7.517-1.361-7.517-6.532c0-4.123 5.565-5.94 7.517-6.476zm0-.243C13.875 9.257 3.63 11.382 3.63 16.032c0 3.032 5.425 7.464 14.26 7.581.348 0 10.384-.389 10.229-11.196-.13-9.078-6.902-10.667-9.067-10.944V.92c8.633.55 15.422 5.758 15.422 12.08 0 6.687-7.595 12.13-16.933 12.13C8.202 25.13.647 19.686.647 13 .647 6.313 8.202.87 17.54.87c.286 0 .57.005.852.016v8.7z" id="Fill-3"/></g></g></g></svg>