<svg width="100" height="60" xmlns="http://www.w3.org/2000/svg"><g id="Icons:-Credit-card" stroke="none" stroke-width="1" fill="none" fill-rule="evenodd"><g id="MasterCard-card-flat" fill="#9B9B9B"><g id="Credit-Card/MasterCard/MasterCard-card-flat"><path d="M49.103 16.592c-.48.475-.937.974-1.367 1.495h3.943a20.024 20.024 0 011.487 2.067h-6.918c-.414.664-.79 1.353-1.125 2.067h9.167c.314.67.59 1.358.827 2.066h-10.82c-.225.672-.415 1.36-.566 2.063h-2.095s-.797 4.74-.918 5.494c-.135.854-.306 1.789-.292 2.146 0 1.145.592 1.767 1.675 1.767.49 0 .942-.079 1.522-.261l.281-1.782c-.143.052-.33.076-.571.076-.504 0-.726-.18-.726-.597.004-.253.353-2.158.597-3.69h1.085l.288-1.935h-1.081l.245-1.215h11.942c.083.386.154.776.214 1.17-.883-.183-1.379.319-2.026 1.27.051-.412.145-.812.127-1.221h-1.946c-.266 2.492-.738 5.015-1.106 7.508l-.096.541h2.12c.758-4.922.94-5.883 2.127-5.763.19-1.003.54-1.882.802-2.329.054.356.098.716.133 1.078.757-1.928 2.305-3.13 4.263-3.13.925 0 2.018.391 2.329.513l-.347 2.148c-.757-.38-1.305-.534-1.893-.534-1.582 0-2.691 1.529-2.691 3.71 0 1.501.746 2.409 1.977 2.409.522 0 1.098-.161 1.8-.508l-.373 2.256c-.78.212-1.285.29-1.872.29-1.605 0-2.785-.812-3.343-2.212a19.395 19.395 0 01-.765 3.136h-10.82c.237.707.513 1.397.826 2.067h9.167a19.55 19.55 0 01-1.125 2.067h-6.917a19.5 19.5 0 001.488 2.064h3.941a19.503 19.503 0 01-1.97 2.067l.003.004c-.181.164-.365.324-.553.482A19.933 19.933 0 0063 51c11.046 0 20-8.954 20-20s-8.954-20-20-20a19.933 19.933 0 00-13.885 5.605l-.012-.013zm-.146-1.223a19.434 19.434 0 00-12.343-4.399c-10.778 0-19.515 8.737-19.515 19.515C17.099 41.264 25.836 50 36.614 50c4.396 0 8.453-1.454 11.716-3.906.179.166.364.335.556.504a20.966 20.966 0 003.72 2.703 20.787 20.787 0 0010.331 2.732c11.566 0 20.94-9.41 20.94-21.017C83.877 19.41 74.503 10 62.937 10a20.822 20.822 0 00-13.98 5.369zM0 4.007C0 1.794 1.8 0 3.997 0h92.006A4.003 4.003 0 01100 4.007v51.986C100 58.206 98.2 60 96.003 60H3.997A4.003 4.003 0 010 55.993V4.007zM27.45 35.62h-2.12l1.215-7.608-2.71 7.608h-1.444l-.178-7.564-1.276 7.564h-1.983l1.656-9.897h3.047l.085 6.127 2.056-6.127h3.29L27.45 35.62zm6.757 0h-1.755l.04-.833c-.535.658-1.25.973-2.22.973-1.148 0-1.935-.897-1.935-2.2 0-1.96 1.369-3.102 3.72-3.102.24 0 .547.022.863.063.065-.267.082-.38.082-.524 0-.532-.368-.73-1.358-.73a7.038 7.038 0 00-2.243.36l.294-1.81c1.055-.31 1.752-.426 2.535-.426 1.82 0 2.783.817 2.782 2.36.003.414-.065.926-.172 1.595-.184 1.165-.579 3.667-.633 4.274zm9.524-9.271l-.001.003h.011l.001-.003h-.011zm6.35 9.086a7.212 7.212 0 01-2.162.325c-2.358-.001-3.586-1.233-3.586-3.59 0-2.753 1.563-4.78 3.684-4.78 1.738 0 2.847 1.135 2.847 2.915 0 .59-.077 1.166-.26 1.98H46.41c-.142 1.167.606 1.654 1.83 1.654.754 0 1.434-.156 2.19-.507l-.35 2.003zm-14.603-5.32c0 1.02.494 1.72 1.614 2.249.857.403.99.523.99.888 0 .502-.378.728-1.217.728a5.97 5.97 0 01-1.898-.316l-.29 1.857c.48.106.91.202 2.203.24 2.236 0 3.269-.852 3.269-2.691 0-1.107-.432-1.756-1.494-2.243-.888-.409-.99-.499-.99-.875 0-.435.352-.66 1.037-.66.415 0 .984.047 1.522.123l.302-1.867a14.422 14.422 0 00-1.865-.157c-2.37 0-3.19 1.237-3.183 2.725zm20.42-2.587v-.006h.004a2.829 2.829 0 00-.003.006zm-23.231 4.507a3.522 3.522 0 00-.473-.033c-1.201 0-1.809.411-1.809 1.224 0 .5.297.821.76.821.863 0 1.485-.821 1.522-2.012zm16.23-1.374c.011-.169.223-1.437-.98-1.437-.67 0-1.151.512-1.346 1.437h2.326zm17.144 1.374a3.496 3.496 0 00-.471-.033c-1.2 0-1.808.411-1.808 1.224 0 .5.296.821.758.821.863 0 1.486-.821 1.521-2.012zm1.542 3.585h-1.755l.04-.833c-.536.658-1.25.973-2.22.973-1.15 0-1.935-.897-1.935-2.2 0-1.96 1.368-3.102 3.719-3.102.24 0 .547.022.862.063.066-.267.083-.38.083-.524 0-.532-.368-.73-1.358-.73a7.042 7.042 0 00-2.242.36l.294-1.81c1.055-.31 1.751-.426 2.535-.426 1.819 0 2.783.817 2.78 2.36.005.414-.064.926-.17 1.595-.184 1.165-.579 3.667-.633 4.274zm11.214 0h-2.004l.099-.749c-.581.621-1.177.89-1.953.89-1.54 0-2.559-1.328-2.559-3.341 0-2.678 1.58-4.935 3.448-4.935.821 0 1.443.336 2.023 1.098l.47-2.86h2.09l-1.614 9.897zm-3.126-1.86c.987 0 1.68-1.117 1.68-2.712 0-1.023-.395-1.579-1.123-1.579-.96 0-1.643 1.122-1.643 2.705 0 1.054.366 1.587 1.086 1.587zm-6.18-6.189c-.264 2.492-.736 5.015-1.104 7.508l-.097.541h2.12c.757-4.922.94-5.883 2.129-5.763.189-1.007.541-1.89.804-2.334-.887-.186-1.383.316-2.032 1.269.051-.412.145-.812.127-1.221h-1.946z" id="Rectangle"/></g></g></g></svg>