<svg width="67" height="43" xmlns="http://www.w3.org/2000/svg"><g id="Icons:-Credit-card" stroke="none" stroke-width="1" fill="none" fill-rule="evenodd"><g id="MasterCard-flat" transform="translate(-17 -10)" fill="#9B9B9B"><g id="Credit-card/MasterCard/MasterCard-flat" transform="translate(17 10)"><path d="M39.032 18.607c-.035-.362-.08-.722-.133-1.078-.262.447-.613 1.326-.802 2.33-1.188-.12-1.37.84-2.128 5.762h-2.12l.097-.54c.368-2.494.84-5.017 1.106-7.509h1.946c.018.409-.076.809-.127 1.22.647-.95 1.143-1.452 2.026-1.27-.06-.393-.131-.783-.214-1.17H26.74l-.245 1.216h1.08l-.287 1.934h-1.085c-.244 1.533-.593 3.438-.597 3.691 0 .417.222.597.726.597.241 0 .428-.024.571-.076l-.281 1.782c-.58.182-1.032.261-1.522.261-1.083 0-1.675-.622-1.675-1.767-.014-.357.157-1.292.292-2.146.121-.753.918-5.494.918-5.494h2.095c.151-.702.341-1.39.566-2.063h10.82a19.436 19.436 0 00-.827-2.066h-9.167c.335-.714.71-1.403 1.125-2.067h6.918a20.024 20.024 0 00-1.487-2.067h-3.943a19.892 19.892 0 011.974-2.07A19.443 19.443 0 0019.614.97C8.836.97.099 9.707.099 20.485.099 31.264 8.836 40 19.614 40c5.04 0 9.634-1.91 13.096-5.046a19.158 19.158 0 01-.004-.004c.707-.64 1.365-1.33 1.971-2.067h-3.941a19.675 19.675 0 01-1.488-2.064h6.917a19.55 19.55 0 001.125-2.067h-9.167c-.313-.67-.589-1.36-.826-2.067h10.82c.338-1.01.596-2.059.765-3.136.558 1.4 1.738 2.212 3.343 2.212.587 0 1.092-.078 1.872-.29l.372-2.256c-.7.347-1.277.508-1.799.508-1.231 0-1.977-.908-1.977-2.41 0-2.18 1.11-3.709 2.691-3.709.588 0 1.136.154 1.893.534l.347-2.148c-.311-.122-1.404-.514-2.329-.514-1.958 0-3.506 1.203-4.263 3.13zM10.449 25.62H8.331l1.214-7.608-2.71 7.608H5.391l-.178-7.564-1.276 7.564H1.954l1.656-9.897h3.047l.085 6.127 2.056-6.127h3.29L10.45 25.62zm6.758 0h-1.755l.04-.833c-.535.658-1.25.973-2.22.973-1.148 0-1.935-.897-1.935-2.2 0-1.96 1.369-3.102 3.72-3.102.24 0 .547.022.863.063.065-.267.082-.38.082-.524 0-.532-.368-.73-1.358-.73a7.038 7.038 0 00-2.243.36l.294-1.81c1.055-.31 1.752-.426 2.535-.426 1.82 0 2.783.817 2.782 2.36.003.414-.065.926-.172 1.595-.184 1.165-.579 3.667-.633 4.274zm15.874-.185a7.212 7.212 0 01-2.162.325c-2.358-.001-3.586-1.233-3.586-3.59 0-2.753 1.563-4.78 3.684-4.78 1.738 0 2.847 1.135 2.847 2.915 0 .59-.077 1.166-.26 1.98H29.41c-.142 1.167.606 1.654 1.83 1.654.754 0 1.434-.156 2.19-.507l-.35 2.003zm-14.603-5.32c0 1.02.494 1.72 1.614 2.249.857.403.99.523.99.888 0 .502-.378.728-1.217.728a5.97 5.97 0 01-1.898-.316l-.29 1.857c.48.106.91.202 2.203.24 2.236 0 3.269-.852 3.269-2.691 0-1.107-.432-1.756-1.494-2.243-.888-.409-.99-.499-.99-.875 0-.435.352-.66 1.037-.66.415 0 .984.047 1.522.123l.302-1.867a14.422 14.422 0 00-1.865-.157c-2.37 0-3.19 1.237-3.183 2.725z" id="Fill-333"/><path d="M15.667 22.036a3.522 3.522 0 00-.473-.033c-1.201 0-1.809.411-1.809 1.224 0 .5.297.821.76.821.863 0 1.485-.821 1.522-2.012zm16.23-1.374c.011-.169.223-1.437-.98-1.437-.67 0-1.151.512-1.346 1.437h2.326z" id="Path"/><path d="M49.041 22.036a3.496 3.496 0 00-.471-.033c-1.2 0-1.808.411-1.808 1.224 0 .5.296.821.758.821.863 0 1.486-.821 1.521-2.012zm1.542 3.585h-1.755l.04-.833c-.536.658-1.25.973-2.22.973-1.15 0-1.935-.897-1.935-2.2 0-1.96 1.368-3.102 3.719-3.102.24 0 .547.022.862.063.066-.267.083-.38.083-.524 0-.532-.368-.73-1.358-.73a7.042 7.042 0 00-2.242.36l.294-1.81c1.055-.31 1.751-.426 2.535-.426 1.819 0 2.783.817 2.78 2.36.005.414-.064.926-.17 1.595-.184 1.165-.579 3.667-.633 4.274z" id="Fill-347"/><path d="M61.797 25.621h-2.004l.099-.749c-.581.621-1.177.89-1.953.89-1.54 0-2.559-1.328-2.559-3.341 0-2.678 1.58-4.935 3.448-4.935.821 0 1.443.336 2.023 1.098l.47-2.86h2.09l-1.614 9.897zm-3.126-1.86c.987 0 1.68-1.117 1.68-2.712 0-1.023-.395-1.579-1.123-1.579-.96 0-1.643 1.122-1.643 2.705 0 1.054.366 1.587 1.086 1.587z" id="Fill-351"/><path d="M52.492 17.572c-.265 2.492-.737 5.015-1.105 7.508l-.097.541h2.12c.757-4.922.94-5.883 2.129-5.763.189-1.007.541-1.89.804-2.334-.887-.186-1.383.316-2.032 1.269.051-.412.145-.812.127-1.221h-1.946" id="Fill-352"/><path d="M31.412 5.878A20.823 20.823 0 0145.937 0c11.566 0 20.94 9.41 20.94 21.016 0 11.607-9.374 21.017-20.94 21.017-3.67 0-7.207-.95-10.33-2.732a20.966 20.966 0 01-3.721-2.703c-.327-.29-.637-.576-.93-.857l.737-.766A19.94 19.94 0 0046 41c11.046 0 20-8.954 20-20S57.046 1 46 1a19.933 19.933 0 00-13.885 5.605l-.703-.727z" id="Path"/></g></g></g></svg>