<svg width="45" height="49" xmlns="http://www.w3.org/2000/svg"><g id="Icons:-Payment" stroke="none" stroke-width="1" fill="none" fill-rule="evenodd"><g id="GoogleWallet-alt" transform="translate(-27 -6)" fill="#FFF"><g id="Payment/GoogleWallet/GoogleWallet-alt" transform="translate(27 6)"><g id="google-wallet" transform="translate(.672 38.913)"><path d="M24.914 6.185c-.092.056-.184.112-.295.168a2.08 2.08 0 01-.848.168c-.277 0-.72-.02-1.162-.354-.627-.448-.903-1.211-.903-1.882 0-1.379 1.106-2.05 2.01-2.05.313 0 .645.075.903.243.443.298.554.67.609.875l-2.066.839-.682.056c.221 1.136.977 1.788 1.807 1.788.443 0 .775-.168 1.07-.317l-.443.466zm-.83-2.645c.166-.056.259-.112.259-.242 0-.354-.388-.764-.867-.764-.35 0-1.014.28-1.014 1.23 0 .148.018.316.018.465l1.604-.69z" id="path8"/><path d="M21.503 6.371h-1.55c.203-.26.24-.298.24-.465V4.453c0-.69.019-1.677.037-2.609 0-.447.037-1.024.056-1.434h-.683l.664-.317h1.254c-.277.168-.369.205-.387.522-.074.69-.074 1.77-.074 3.036v2.05c0 .354.055.41.35.428.148.019.296.038.443.038l-.35.204" id="path10"/><path d="M18.607 2.664c.203.168.627.522.627 1.211 0 .652-.368.969-.737 1.267-.11.112-.24.242-.24.428 0 .187.13.298.221.373l.314.242c.387.336.737.634.737 1.248 0 .839-.793 1.677-2.323 1.677-1.273 0-1.9-.615-1.9-1.267 0-.316.166-.782.683-1.08.553-.336 1.29-.392 1.678-.41-.13-.168-.258-.335-.258-.596a.72.72 0 01.092-.354c-.092 0-.203.018-.277.018-.94 0-1.457-.708-1.457-1.397 0-.41.185-.857.572-1.192.498-.41 1.107-.485 1.568-.485h1.807l-.572.317h-.535zm-.627 3.95h-.202c-.074 0-.554.018-.923.149-.202.074-.756.28-.756.913s.609 1.08 1.55 1.08c.848 0 1.29-.41 1.29-.969 0-.447-.295-.689-.959-1.173zm.259-1.677c.202-.205.22-.484.22-.652 0-.634-.386-1.64-1.106-1.64-.22 0-.48.112-.608.299a1.051 1.051 0 00-.203.652c0 .596.35 1.583 1.106 1.583.203 0 .443-.112.59-.242z" id="path12"/><path d="M13.167 6.502c-1.401 0-2.139-1.1-2.139-2.105 0-1.174.94-2.161 2.287-2.161 1.29 0 2.102 1.024 2.102 2.105-.018 1.043-.83 2.16-2.25 2.16m1.088-.726c.203-.28.258-.633.258-.987 0-.783-.368-2.273-1.456-2.273a1.23 1.23 0 00-.793.298c-.35.317-.406.708-.406 1.08 0 .876.424 2.33 1.494 2.33.35 0 .7-.168.903-.448" id="path14"/><path d="M8.483 6.502c-1.402 0-2.14-1.1-2.14-2.105 0-1.174.941-2.161 2.288-2.161 1.29 0 2.102 1.024 2.102 2.105-.019 1.043-.83 2.16-2.25 2.16m1.088-.726c.203-.28.258-.633.258-.987 0-.783-.369-2.273-1.457-2.273-.295 0-.59.112-.793.298-.35.317-.405.708-.405 1.08 0 .876.424 2.33 1.493 2.33.35 0 .701-.168.904-.448" id="path16"/><path d="M5.754 6.185l-1.18.28c-.48.074-.904.149-1.365.149C.922 6.614.055 4.918.055 3.596.055 1.975 1.291.484 3.393.484c.443 0 .867.075 1.254.168.627.168.904.391 1.088.522l-.682.652-.295.074.203-.335c-.277-.28-.793-.783-1.77-.783C1.88.782.903 1.788.903 3.242c0 1.565 1.125 3.036 2.913 3.036.535 0 .793-.111 1.052-.205V4.732l-1.254.075.663-.354H6.03l-.221.205c-.055.055-.074.074-.074.13 0 .074-.018.317-.018.391v1.006" id="path18"/><path d="M28.695 6.371h-.627l-.922-4.024h.498l.756 3.615.774-3.615h.627l.812 3.615.737-3.615h.48l-.904 4.024H30.3l-.793-3.576-.811 3.576" id="path20"/><path d="M34.744 3.577c0-.652-.295-.913-.94-.913-.517 0-.812.28-.886.745l-.461-.056c.092-.652.608-1.099 1.346-1.099.885 0 1.383.391 1.383 1.267v2.05c0 .353.019.596.074.782h-.461a1.708 1.708 0 01-.055-.429c-.185.28-.627.522-1.052.522-.737 0-1.309-.447-1.309-1.341 0-.82.59-1.286 1.42-1.286.406 0 .738.075.94.168v-.41zm0 .876c-.222-.112-.535-.205-.96-.205-.553 0-.958.28-.958.875 0 .615.369.932.885.932.46 0 .867-.336 1.033-.69v-.912z" id="path22"/><path d="M36.09 6.371h.5V.633h-.5v5.738z" id="path24"/><path d="M37.51 6.371h.5V.633h-.5v5.738z" id="path26"/><path d="M40.202 6.036c.48 0 .849-.298.922-1.043l.461.074c-.11.97-.664 1.416-1.383 1.416-.94 0-1.512-.708-1.512-2.142 0-1.286.48-2.068 1.457-2.068 1.033 0 1.438.857 1.438 2.03v.15h-2.434c.019 1.099.424 1.583 1.051 1.583m.904-1.993c-.019-.764-.314-1.342-.96-1.342-.626 0-.958.522-.995 1.342h1.955" id="path28"/><path d="M43.706 6.353a1.432 1.432 0 01-.48.074c-.59 0-.774-.298-.774-.875V2.757h-.516v-.41h.516V1.043l.461-.186v1.49h.793v.41h-.793v2.72c0 .391.074.485.387.485a.872.872 0 00.406-.094v.485" id="path30"/></g><path d="M14.747 9.501c1.197 1.927 1.902 4.112 2.16 6.363.07.6.113 1.203.113 1.81 0 2.898-.79 5.73-2.282 8.19a3.41 3.41 0 00-.48 2.1 3.428 3.428 0 003.414 3.121c1.21 0 2.311-.618 2.94-1.653a22.627 22.627 0 003.278-11.759c0-4.145-1.129-8.203-3.263-11.734a3.612 3.612 0 00-1.058-1.09 3.433 3.433 0 00-1.862-.565c-.552 0-.833.068-1.23.227-.406.163-.838.383-1.229.795-.387.41-.619.827-.781 1.26-.33.87-.291 2.019.28 2.935z" id="Path"/><path d="M5.532 14.708c4.785 2.561 7.87 7.446 8.236 13.092v-.005a3.39 3.39 0 01.48-2.09 15.762 15.762 0 002.282-8.19c0-.607-.042-1.21-.111-1.81-1.967-2.713-4.705-5.09-7.806-6.752a3.281 3.281 0 00-1.536-.386c-1.21 0-2.311.659-2.88 1.724a3.267 3.267 0 001.335 4.417zm21.945 15.09a28.144 28.144 0 002.707-12.123c0-1.458-.1-2.522-.174-3.194-2.35-3.766-5.76-7.13-9.747-9.602l-.051-.035c.018.01.034.023.05.035l.05.033c.277.2.51.41.755.726.06.078.143.187.212.301a22.673 22.673 0 013.217 13.214c1.713 3.262 2.647 6.97 2.647 10.86 0 .31.007.806 0 1.168a3.85 3.85 0 01.265-1.209.93.93 0 01.07-.174z" id="Path"/><path d="M37.061 25.632c.586-2.581.896-5.24.896-7.957 0-2.687-.31-5.384-.893-7.959a35.61 35.61 0 00-2.544-7.335A3.632 3.632 0 0031.257.32a3.59 3.59 0 00-1.546.35 3.62 3.62 0 00-1.709 4.811 28.198 28.198 0 012.738 12.193c0 4.24-.91 8.321-2.708 12.123-.028.058-.343.73-.343 1.508 0 .218.025.545.093.836a3.595 3.595 0 003.506 2.81 3.624 3.624 0 003.166-1.872c.718-1.35 1.445-3.126 2.076-5.414.208-.69.374-1.335.531-2.034z" id="Path"/></g></g></g></svg>