<svg width="100" height="60" xmlns="http://www.w3.org/2000/svg"><g id="Icons:-Payment" stroke="none" stroke-width="1" fill="none" fill-rule="evenodd"><g id="Ingenico-card-flat" fill="#9B9B9B"><g id="Payment/Ingenico/Ingenico-card-flat"><path d="M0 4.007C0 1.794 1.8 0 3.997 0h92.006A4.003 4.003 0 01100 4.007v51.986C100 58.206 98.2 60 96.003 60H3.997A4.003 4.003 0 010 55.993V4.007zm11.55 20.965h2.46v11.054h-2.46V24.972zm5.557-5.01h43.808v1.747H17.107v-1.747zm18.428 7.16c-.412-.041-.889-.12-1.604-.12-2.068 0-2.886 1.516-2.886 3.577 0 2.636 1.042 3.548 2.662 3.548.738 0 1.352-.305 1.828-.544V27.12zm-2.318 13.467c-1.557 0-2.986-.33-3.866-.593l.376-2.1c.94.214 2.31.423 3.076.423 1.642 0 2.746-.287 2.746-2.227.038-.04 0-.553 0-.61-.502.409-1.217.73-1.97.73-2.356 0-4.979-.648-4.979-5.649 0-3.77 2.421-5.776 5.355-5.776 1.168 0 2.435.17 4.04.434V36.37c0 3.098-2.594 4.219-4.778 4.219zm11.842-13.85c-1.054 0-2.145.765-2.258 2.625h4.1c.014-1.701-.79-2.625-1.842-2.625zm-2.31 4.511c.014 2.413 1.406 2.757 3.251 2.757.714 0 1.969-.105 2.782-.29l.377 2.071c-.813.279-2.37.424-3.612.424-3.212 0-5.258-1.19-5.258-5.53 0-4.496 2.098-5.973 4.996-5.973 2.97 0 4.174 2.109 4.174 5.565v.976h-6.71zm21.262-6.278h2.472v11.054h-2.472V24.972zm12.506 2.388c-.675-.279-1.316-.478-2.346-.478-1.579 0-2.781.965-2.781 3.564 0 2.492.613 3.6 3.323 3.6.84 0 1.405-.158 2.084-.264l.337 2.07c-.804.174-1.479.36-2.594.36-4.129 0-5.687-1.678-5.687-5.808 0-3.507 2.061-5.712 5.318-5.712 1.458 0 2.386.305 3.063.703l-.717 1.965zm7.052-.542c-2.02 0-2.559 1.782-2.559 3.707 0 2.06.615 3.602 2.595 3.602 2.007 0 2.496-1.624 2.496-3.629 0-1.884-.49-3.68-2.532-3.68zm-.113 9.456c-3.162 0-4.929-2.124-4.929-5.67 0-3.722 2.046-5.912 5.093-5.912 3.425 0 5.017 2.126 5.017 5.806 0 3.813-2.22 5.776-5.181 5.776zm-69.26-15.437a1.42 1.42 0 01-1.41 1.414 1.42 1.42 0 110-2.84c.773 0 1.41.639 1.41 1.426zm52.473 0a1.42 1.42 0 01-1.422 1.414c-.784 0-1.41-.638-1.41-1.414a1.415 1.415 0 112.832 0zM23.03 24.669c-1.555 0-2.735.935-3.436 1.462v-.026c-.018.03-.048.05-.075.079-.238-.886-.876-1.145-1.451-1.212h-.958v11.054h2.484v-8.1c.489-.278 1.618-.95 2.648-.95 1.39 0 1.677.727 1.677 2.334v6.716h2.46v-7.02c0-2.267-.2-4.337-3.349-4.337zm34.551 0c-1.554 0-2.744.935-3.435 1.462v-.026c-.03.03-.056.05-.077.079-.248-.886-.875-1.145-1.461-1.212h-.946v11.054h2.484v-8.1c.488-.278 1.616-.95 2.647-.95 1.392 0 1.67.727 1.67 2.334v6.716h2.468v-7.02c0-2.267-.211-4.337-3.35-4.337z" id="Rectangle-75"/></g></g></g></svg>